{"glyphs":{"0":{"ha":694,"x_min":43,"x_max":651,"o":"m 394 940 q 578 823 506 940 q 651 481 651 706 q 548 107 651 257 q 297 -43 444 -43 q 115 75 188 -43 q 43 417 43 193 q 146 790 43 640 q 394 940 249 940 m 201 695 q 164 641 201 695 q 128 422 128 586 q 181 174 128 258 q 314 90 233 90 q 496 195 422 90 q 569 463 569 300 q 516 715 569 626 q 382 804 463 804 q 201 695 274 804 z "},"1":{"ha":694,"x_min":63,"x_max":519,"o":"m 428 -43 q 417 -47 428 -47 q 364 -26 381 -47 q 321 488 321 264 q 326 639 321 572 q 125 513 225 556 q 88 533 111 513 q 63 571 64 553 q 350 833 218 663 q 367 918 356 874 l 404 940 l 519 883 q 422 128 422 664 q 428 -43 422 14 z "},"2":{"ha":694,"x_min":0,"x_max":640,"o":"m 571 675 q 188 107 571 501 q 624 40 508 79 q 640 -11 640 19 q 638 -42 640 -42 q 335 -11 497 -11 q 26 -33 172 -11 l 0 8 q 137 167 46 54 q 294 372 228 281 q 425 671 425 554 q 282 799 425 799 q 76 746 179 799 l 60 785 l 111 885 q 275 896 200 896 q 415 876 350 896 q 513 819 481 856 q 571 675 571 756 z "},"3":{"ha":694,"x_min":43,"x_max":600,"o":"m 86 746 l 69 785 l 121 885 q 276 896 199 896 q 581 842 460 896 q 599 786 599 824 q 296 483 492 631 q 336 486 324 486 q 526 416 451 486 q 600 224 600 346 q 502 24 600 101 q 277 -54 404 -54 q 43 6 150 -54 q 52 45 43 21 q 69 69 61 69 q 238 22 151 22 q 387 79 325 22 q 449 222 449 136 q 402 355 449 307 q 287 403 356 403 q 147 369 218 403 l 119 419 q 118 421 118 419 l 118 422 q 303 597 224 511 q 461 800 383 682 q 408 801 444 801 q 86 746 203 801 z "},"4":{"ha":694,"x_min":-8,"x_max":618,"o":"m 347 879 q 414 906 372 906 l 594 839 q 503 306 517 649 q 597 339 557 321 l 618 301 l 564 185 q 500 175 546 181 l 500 128 q 506 -43 500 14 q 494 -47 506 -47 q 442 -26 458 -47 q 417 168 428 69 q 311 165 347 165 q 13 207 136 165 q -2 236 4 214 q -8 271 -8 258 q 347 879 225 636 m 135 261 q 406 283 282 261 q 399 490 399 390 q 414 794 399 590 l 400 794 q 285 563 368 735 q 135 261 201 390 z "},"5":{"ha":694,"x_min":57,"x_max":614,"o":"m 332 503 q 529 428 444 503 q 614 227 614 353 q 516 24 614 101 q 291 -54 418 -54 q 57 6 164 -54 q 66 45 57 21 q 83 69 75 69 q 252 22 165 22 q 401 79 339 22 q 463 226 463 136 q 413 364 463 315 q 292 413 363 413 q 161 372 222 413 q 114 357 140 357 q 88 360 88 357 q 115 661 115 472 q 111 767 115 714 q 136 832 111 806 q 450 889 264 889 q 546 885 497 889 l 601 786 l 586 747 q 324 789 488 789 q 225 785 269 789 q 186 461 200 532 q 332 503 253 503 z "},"6":{"ha":694,"x_min":56,"x_max":649,"o":"m 238 483 l 250 475 q 392 519 318 519 q 572 444 494 519 q 649 247 649 368 q 572 34 649 125 q 356 -57 494 -57 q 216 -29 276 -57 q 122 46 156 -1 q 56 270 56 138 q 163 590 56 403 q 406 926 271 776 q 431 929 414 929 q 464 924 447 929 q 481 913 481 918 q 238 483 304 672 m 326 18 q 451 88 393 18 q 510 241 510 157 q 471 381 510 325 q 353 436 432 436 q 232 385 275 436 q 189 258 189 335 q 227 113 189 182 q 326 18 265 43 z "},"7":{"ha":694,"x_min":54,"x_max":646,"o":"m 500 792 l 438 793 q 71 733 206 793 l 54 772 l 110 886 q 275 896 183 896 q 628 840 493 896 q 646 781 646 825 l 646 775 q 438 387 524 576 q 250 -65 351 197 q 231 -72 247 -72 q 194 -42 214 -72 q 281 239 250 143 q 500 792 369 514 z "},"8":{"ha":764,"x_min":75,"x_max":694,"o":"m 510 438 q 649 330 603 397 q 694 186 694 263 q 610 16 694 85 q 387 -53 526 -53 q 161 19 247 -53 q 75 178 75 90 q 122 333 75 265 q 260 442 168 401 q 90 689 90 517 q 170 862 90 792 q 382 932 250 932 q 597 859 514 932 q 679 689 679 786 q 510 438 679 510 m 388 403 q 259 320 308 382 q 210 186 210 258 q 263 69 210 114 q 388 24 317 24 q 510 65 460 24 q 561 180 561 107 q 518 311 561 253 q 388 403 475 369 m 382 476 q 506 558 460 497 q 551 692 551 619 q 499 810 551 764 q 380 856 447 856 q 265 814 313 856 q 217 696 217 772 q 382 476 217 539 z "},"9":{"ha":694,"x_min":53,"x_max":646,"o":"m 464 383 l 451 392 q 310 347 383 347 q 130 423 207 347 q 53 620 53 499 q 130 833 53 742 q 346 924 207 924 q 485 896 425 924 q 581 821 546 868 q 646 597 646 729 q 545 276 646 464 q 319 -60 444 89 q 299 -62 311 -62 q 272 -60 286 -62 q 244 -49 244 -54 l 244 -46 q 464 383 401 193 m 375 849 q 250 779 308 849 q 192 617 192 710 q 238 476 192 525 q 350 428 285 428 q 464 476 415 428 q 513 604 513 525 q 474 753 513 683 q 375 849 436 824 z "}," ":{"ha":389,"x_min":0,"x_max":0,"o":""},"!":{"ha":357,"x_min":83,"x_max":357,"o":"m 140 311 q 207 964 140 699 l 244 982 l 357 915 q 267 628 310 819 q 213 269 225 436 q 161 253 192 253 q 140 311 140 253 m 226 168 q 121 127 158 158 q 83 55 83 96 q 106 -12 83 14 q 168 -39 128 -39 q 242 -10 208 -39 q 275 74 275 18 q 226 168 275 131 z "},"\"":{"ha":435,"x_min":83,"x_max":435,"o":"m 167 632 q 97 621 140 621 q 83 654 83 621 q 107 967 83 789 l 133 979 l 231 931 q 167 632 185 815 m 371 632 q 301 621 344 621 q 288 654 288 621 q 311 967 288 774 l 338 979 l 435 931 q 371 632 388 808 z "},"#":{"ha":694,"x_min":-117,"x_max":778,"o":"m 47 -46 q 33 -53 44 -53 q 2 -44 21 -53 q -25 -25 -17 -36 q 31 256 24 222 l -69 250 l -117 331 l -99 385 q 54 367 -26 374 q 99 561 65 417 l 0 556 l -47 636 l -29 690 q 125 672 40 679 q 197 971 147 771 l 303 999 l 349 967 q 238 665 289 825 q 341 664 271 664 q 494 668 411 664 l 568 971 l 674 999 l 719 967 q 613 675 663 832 q 765 689 653 678 q 778 660 778 689 q 767 614 778 632 q 586 593 674 601 q 522 368 564 518 q 696 383 639 378 q 708 355 708 383 q 697 308 708 326 q 501 286 567 292 l 418 -46 q 403 -53 414 -53 q 373 -44 392 -53 q 346 -25 354 -36 q 407 279 369 106 q 124 261 300 271 q 47 -46 65 24 m 475 585 q 207 567 379 576 q 150 361 174 449 q 265 358 189 358 q 425 363 342 358 q 475 585 447 468 z "},"$":{"ha":694,"x_min":53,"x_max":619,"o":"m 619 886 l 574 767 q 426 803 510 800 q 393 493 414 643 q 547 358 510 403 q 607 215 607 288 q 547 67 607 140 q 449 -1 515 26 q 290 -36 382 -29 q 254 -168 282 -68 q 157 -142 193 -168 q 192 -37 183 -67 q 68 -15 138 -35 q 53 26 53 8 q 55 44 53 44 q 75 39 57 44 q 189 24 132 24 l 211 24 q 299 397 254 176 q 206 474 233 450 q 145 545 178 497 q 113 646 113 593 q 169 763 113 699 q 375 875 225 826 l 394 1042 q 442 1019 432 1042 l 433 890 q 596 922 510 911 l 619 886 m 325 549 q 365 799 350 685 q 246 682 246 778 q 325 549 246 621 m 369 336 q 308 39 339 165 q 413 99 375 58 q 451 199 451 139 q 369 336 451 258 z "},"%":{"ha":1124,"x_min":69,"x_max":1054,"o":"m 285 926 q 399 856 354 926 q 443 649 443 785 q 380 422 443 513 q 226 332 317 332 q 114 403 158 332 q 69 610 69 474 q 133 836 69 746 q 285 926 196 926 m 267 824 q 242 824 267 824 q 177 764 217 824 q 138 615 138 704 q 167 478 138 525 q 247 432 196 432 q 337 490 297 432 q 376 637 376 547 q 347 775 376 726 q 267 824 318 824 m 896 567 q 1010 496 965 567 q 1054 289 1054 425 q 991 63 1054 153 q 838 -28 928 -28 q 725 43 769 -28 q 681 250 681 114 q 744 476 681 386 q 896 567 807 567 m 878 464 q 853 464 878 464 q 788 404 828 464 q 749 255 749 344 q 778 119 749 165 q 858 72 807 72 q 948 130 908 72 q 988 277 988 188 q 958 415 988 367 q 878 464 929 464 m 339 -136 q 322 -143 336 -143 q 272 -112 292 -143 q 751 994 551 557 l 867 1025 l 911 989 q 682 585 774 769 q 551 321 590 401 q 440 83 513 240 q 339 -136 368 -75 z "},"&":{"ha":740,"x_min":35,"x_max":740,"o":"m 242 -31 q 89 31 143 -31 q 35 183 35 92 q 84 365 35 275 q 228 519 133 454 q 194 649 194 597 q 210 738 194 701 q 271 814 226 775 q 658 922 363 894 l 681 886 l 636 767 q 485 817 554 817 q 376 779 415 817 q 338 668 338 742 q 511 265 338 517 q 601 474 567 356 q 611 485 604 485 q 654 465 631 485 q 561 196 631 317 q 740 -33 619 117 q 728 -46 740 -46 q 661 -28 683 -46 q 511 124 594 33 q 242 -31 389 -31 m 454 186 q 263 449 331 331 q 169 244 169 361 q 201 138 169 183 q 289 93 233 93 q 454 186 375 93 z "},"'":{"ha":231,"x_min":83,"x_max":231,"o":"m 167 632 q 97 621 140 621 q 83 654 83 621 q 107 967 83 789 l 133 979 l 231 931 q 167 632 185 815 z "},"(":{"ha":440,"x_min":63,"x_max":440,"o":"m 396 -81 q 365 -117 390 -97 q 329 -136 340 -136 q 63 401 63 81 q 403 1032 63 782 q 424 1019 413 1032 q 440 989 436 1007 q 203 407 203 769 q 396 -81 203 92 z "},")":{"ha":440,"x_min":0,"x_max":378,"o":"m 44 976 q 75 1013 50 993 q 111 1032 100 1032 q 378 494 378 815 q 38 -136 378 114 q 16 -124 28 -136 q 0 -93 4 -111 q 238 489 238 126 q 44 976 238 804 z "},"*":{"ha":646,"x_min":111,"x_max":549,"o":"m 274 667 l 147 579 q 128 603 139 579 q 117 639 117 628 q 232 735 190 701 q 111 840 158 789 l 142 900 l 178 925 q 279 817 228 863 q 308 967 288 894 l 374 972 l 413 954 q 381 836 394 899 q 493 892 432 868 l 539 844 l 549 801 q 383 729 474 774 q 526 632 456 675 q 529 628 529 629 q 483 581 508 588 q 353 653 407 621 q 349 504 349 585 q 323 500 346 499 q 283 511 300 501 q 274 667 275 621 z "},"+":{"ha":694,"x_min":64,"x_max":636,"o":"m 290 721 l 368 740 l 418 724 q 393 524 397 617 q 535 535 479 535 q 611 533 592 535 l 636 457 l 624 404 q 488 415 532 415 q 393 413 443 415 q 414 172 397 296 q 381 165 414 165 q 333 171 349 165 q 292 404 301 314 q 75 368 214 396 q 64 403 64 368 q 67 449 64 438 q 282 503 185 483 q 281 585 281 525 q 290 721 281 644 z "},",":{"ha":301,"x_min":14,"x_max":247,"o":"m 160 179 q 180 179 160 179 q 224 150 200 179 q 247 71 247 121 q 227 -26 247 21 q 178 -101 207 -72 q 118 -153 150 -131 q 36 -192 60 -192 q 22 -176 31 -192 q 14 -149 14 -160 q 119 -8 113 -103 l 60 78 q 90 152 60 125 q 160 179 119 179 z "},"-":{"ha":557,"x_min":49,"x_max":508,"o":"m 508 428 l 463 319 q 273 304 371 304 q 81 328 175 304 q 61 360 71 333 q 49 403 51 386 l 54 411 q 207 400 125 400 q 493 453 356 400 l 508 428 z "},".":{"ha":294,"x_min":54,"x_max":246,"o":"m 139 -39 q 119 -39 139 -39 q 76 -12 99 -39 q 54 55 54 14 q 92 127 54 96 q 197 168 129 158 q 246 74 246 131 q 213 -10 246 18 q 139 -39 179 -39 z "},"/":{"ha":639,"x_min":0,"x_max":639,"o":"m 67 -136 q 50 -143 64 -143 q 0 -112 19 -143 q 479 994 279 557 l 594 1025 l 639 989 q 410 585 501 769 q 279 321 318 401 q 168 83 240 240 q 67 -136 96 -75 z "},":":{"ha":294,"x_min":54,"x_max":282,"o":"m 139 -39 q 119 -39 139 -39 q 76 -12 99 -39 q 54 55 54 14 q 92 127 54 96 q 197 168 129 158 q 246 74 246 131 q 213 -10 246 18 q 139 -39 179 -39 m 197 633 q 217 633 197 633 q 260 607 238 633 q 282 540 282 581 q 244 467 282 499 q 139 426 207 436 q 90 520 90 464 q 124 605 90 576 q 197 633 157 633 z "},";":{"ha":294,"x_min":13,"x_max":282,"o":"m 197 633 q 217 633 197 633 q 260 607 238 633 q 282 540 282 581 q 244 467 282 499 q 139 426 207 436 q 90 520 90 464 q 124 605 90 576 q 197 633 157 633 m 158 179 q 178 179 158 179 q 222 150 199 179 q 246 71 246 121 q 226 -26 246 21 q 177 -101 206 -72 q 117 -153 149 -131 q 35 -192 58 -192 q 21 -176 29 -192 q 13 -149 13 -160 q 118 -8 111 -103 l 58 78 q 88 152 58 125 q 158 179 118 179 z "},"<":{"ha":694,"x_min":61,"x_max":632,"o":"m 61 371 l 74 456 q 572 699 386 569 l 614 683 l 632 589 q 221 422 471 497 l 218 404 q 578 238 456 322 l 531 149 l 488 133 q 317 256 419 201 q 61 371 215 310 z "},"=":{"ha":694,"x_min":64,"x_max":643,"o":"m 624 393 l 643 315 l 626 264 q 362 289 501 289 q 75 269 222 289 q 68 303 68 269 q 74 349 68 336 q 472 403 324 403 q 624 393 547 403 m 611 644 l 636 569 l 624 517 q 464 526 524 526 q 74 481 289 526 q 64 515 64 481 q 67 561 64 550 q 551 647 372 647 q 611 644 592 647 z "},">":{"ha":694,"x_min":63,"x_max":633,"o":"m 633 461 l 621 376 q 122 133 308 263 l 81 149 l 63 243 q 474 410 224 335 l 476 428 q 117 594 239 510 l 164 683 l 207 699 q 377 576 275 631 q 633 461 479 522 z "},"?":{"ha":563,"x_min":90,"x_max":532,"o":"m 311 304 q 275 254 311 254 q 153 328 194 283 q 113 417 113 374 q 142 505 113 461 q 213 581 171 549 q 297 643 254 613 q 397 782 397 715 q 363 846 397 825 q 270 867 328 867 q 140 822 213 867 l 93 957 l 126 985 q 492 856 404 963 q 532 753 532 807 q 503 656 532 700 q 433 580 474 613 q 350 517 392 547 q 251 388 251 443 q 311 304 251 333 m 233 168 q 128 127 165 158 q 90 55 90 96 q 113 -12 90 14 q 175 -39 135 -39 q 249 -10 215 -39 q 282 74 282 18 q 233 168 282 131 z "},"@":{"ha":1225,"x_min":92,"x_max":1144,"o":"m 683 294 l 675 300 q 553 125 621 192 q 428 58 486 58 q 332 178 332 58 q 368 331 332 256 q 463 464 404 406 q 714 635 574 574 l 811 676 l 839 660 q 789 457 814 604 q 764 199 764 310 q 824 54 764 54 q 949 156 888 54 q 1011 429 1011 257 q 917 686 1011 601 q 676 771 824 771 q 347 619 482 771 q 211 242 211 467 q 290 3 211 85 q 497 -79 369 -79 q 507 -87 507 -79 q 486 -149 503 -126 q 200 -51 308 -149 q 92 239 92 47 q 269 667 92 494 q 701 840 446 840 q 1022 740 899 840 q 1144 449 1144 640 q 1029 115 1144 257 q 788 -26 914 -26 q 698 19 722 -26 q 674 136 674 65 q 683 294 674 207 m 501 200 q 596 259 542 200 q 696 432 650 318 l 717 565 q 531 451 615 525 q 447 288 447 376 q 501 200 447 200 z "},"A":{"ha":697,"x_min":-33,"x_max":647,"o":"m 529 914 q 522 758 522 840 q 647 -43 522 421 q 636 -47 643 -46 q 582 -26 600 -47 q 479 268 535 74 q 303 253 385 253 q 190 256 222 253 q 44 -26 125 119 q -7 -47 19 -47 q -33 -43 -33 -47 q 106 267 19 61 q 53 278 89 269 q 32 339 32 300 q 36 349 32 349 q 53 344 40 349 q 131 331 82 336 q 315 860 264 657 l 468 940 q 529 914 507 940 m 224 326 q 456 358 354 329 q 383 725 399 574 q 224 326 304 507 z "},"B":{"ha":707,"x_min":42,"x_max":693,"o":"m 254 444 q 238 231 251 331 q 210 100 225 131 q 174 79 193 79 q 156 83 156 79 q 175 326 175 213 q 53 854 175 732 l 110 947 q 354 847 193 876 q 472 822 415 836 q 594 713 594 794 q 558 638 594 676 q 472 569 521 599 q 343 501 385 517 q 604 413 515 489 q 693 229 693 336 q 591 42 693 122 q 297 -39 489 -39 q 63 -15 171 -39 q 42 25 42 6 q 46 44 42 44 q 71 39 50 44 q 211 24 139 24 q 447 84 356 24 q 538 247 538 144 q 489 353 538 307 q 254 444 401 435 m 233 786 q 256 546 256 729 q 385 622 332 576 q 438 692 438 667 q 401 733 438 717 q 308 762 364 749 q 233 786 253 775 z "},"C":{"ha":678,"x_min":42,"x_max":664,"o":"m 643 904 l 597 785 q 515 790 558 790 q 346 756 418 790 q 236 667 274 722 q 165 426 165 557 q 218 166 165 256 q 344 76 271 76 q 503 151 439 76 q 611 382 567 226 q 621 393 614 393 q 664 374 640 393 q 537 69 636 183 q 315 -44 438 -44 q 117 64 192 -44 q 42 350 42 172 q 121 636 42 503 q 228 769 164 710 q 393 875 292 829 q 619 940 494 921 l 643 904 z "},"D":{"ha":751,"x_min":49,"x_max":742,"o":"m 251 711 q 256 517 256 649 q 241 260 256 385 q 210 100 226 136 q 174 79 192 79 q 156 83 156 79 q 175 326 175 239 q 51 854 175 731 l 110 947 q 390 731 224 836 q 636 546 543 635 q 713 442 683 501 q 742 310 742 382 q 710 176 742 239 q 630 75 678 114 q 522 10 582 36 q 69 -15 333 -72 q 49 26 49 8 q 53 44 49 44 q 78 39 57 44 q 219 24 146 24 q 486 110 382 24 q 590 315 590 197 q 251 711 590 533 z "},"E":{"ha":753,"x_min":82,"x_max":704,"o":"m 585 510 l 543 414 q 389 399 463 399 q 261 403 315 399 q 260 347 260 383 q 299 123 260 211 q 419 35 339 35 q 547 94 499 35 q 633 285 596 153 q 643 296 636 296 q 686 276 663 296 q 396 -46 622 -46 q 147 415 156 -46 l 119 421 q 95 449 107 425 q 82 488 83 474 l 89 496 q 149 489 126 490 q 174 808 156 703 l 140 817 q 120 844 128 825 q 113 871 113 863 q 115 879 113 879 l 214 871 l 315 940 l 351 918 l 335 869 q 681 940 546 872 l 704 904 l 658 785 q 474 772 561 772 q 314 782 386 772 q 267 485 281 640 l 299 485 q 572 533 449 485 l 585 510 z "},"F":{"ha":601,"x_min":63,"x_max":643,"o":"m 189 351 l 188 396 q 124 410 147 403 q 106 438 114 414 q 96 476 97 461 l 100 485 q 186 475 139 478 q 150 801 179 618 q 90 817 129 806 q 70 844 78 825 q 63 871 63 863 q 65 879 63 879 q 142 874 92 876 l 239 940 l 275 918 q 282 869 281 883 q 619 940 489 875 l 643 904 l 597 785 q 424 772 499 772 q 292 778 349 772 q 296 645 296 707 q 290 475 296 583 q 524 522 419 482 l 536 499 l 493 403 q 315 388 410 388 l 283 388 q 229 -19 268 222 q 198 -38 219 -31 q 162 -46 176 -46 q 147 -39 147 -46 l 151 -24 q 189 351 189 114 z "},"G":{"ha":747,"x_min":42,"x_max":699,"o":"m 689 -19 q 676 -26 689 -25 q 628 -6 640 -22 q 564 179 583 100 q 453 14 521 72 q 303 -44 385 -44 q 111 64 181 -44 q 42 350 42 172 q 121 636 42 503 q 228 769 164 710 q 393 875 292 829 q 619 940 494 921 l 643 904 l 597 785 q 515 790 558 790 q 346 756 418 790 q 236 667 274 722 q 165 426 165 557 q 216 166 165 256 q 338 76 267 76 q 543 294 481 76 q 538 398 538 339 q 551 536 538 457 l 585 558 l 699 507 q 654 272 654 422 q 689 -19 654 122 z "},"H":{"ha":849,"x_min":83,"x_max":779,"o":"m 189 351 l 188 383 q 104 400 154 388 q 83 457 83 419 q 88 469 83 469 q 106 467 93 469 q 186 451 135 457 q 163 665 181 557 q 132 828 146 772 l 118 883 l 239 940 l 275 918 q 296 674 296 794 q 289 449 296 553 q 600 513 476 457 q 599 645 599 542 q 625 918 599 749 l 661 940 l 779 883 q 715 379 715 719 q 736 -43 715 126 q 725 -47 736 -47 q 671 -26 689 -47 q 607 406 621 228 q 336 375 460 375 l 283 375 q 229 -19 268 214 q 198 -38 219 -31 q 162 -46 176 -46 q 147 -39 147 -46 l 151 -24 q 189 351 189 114 z "},"I":{"ha":363,"x_min":111,"x_max":272,"o":"m 200 -24 q 170 -39 192 -32 q 137 -46 149 -46 q 125 -40 125 -46 q 151 326 151 139 q 111 915 151 660 l 147 940 l 272 876 q 246 380 265 653 q 200 -24 226 107 z "},"J":{"ha":551,"x_min":-82,"x_max":517,"o":"m -82 -103 l 21 -53 l 53 -72 q 97 -183 53 -157 q 122 -192 110 -192 q 188 -142 156 -192 q 271 357 271 -11 q 254 753 271 564 q 194 750 238 750 q 99 763 150 750 l 83 799 l 119 918 q 288 871 181 871 q 511 908 396 871 q 517 885 517 908 q 496 843 517 861 q 407 796 440 810 q 325 -26 381 172 q 169 -265 279 -192 q 74 -301 115 -301 q 1 -282 33 -301 q -82 -103 -72 -236 z "},"K":{"ha":682,"x_min":104,"x_max":682,"o":"m 193 -17 q 163 -32 185 -25 q 130 -39 142 -39 q 118 -33 118 -39 q 144 326 144 146 q 104 915 144 660 l 140 940 l 265 876 q 242 429 256 617 q 521 893 408 732 l 642 921 l 682 889 q 386 513 489 650 q 510 234 421 406 q 667 -26 599 63 l 667 -28 q 621 -43 667 -43 q 604 -42 610 -43 q 304 401 494 64 q 232 297 251 326 q 193 -17 213 79 z "},"L":{"ha":586,"x_min":111,"x_max":607,"o":"m 188 -7 l 186 -17 q 156 -32 178 -25 q 123 -39 135 -39 q 111 -33 111 -39 q 144 433 144 167 q 114 915 144 699 l 150 940 l 274 876 q 201 65 250 364 q 239 65 221 65 q 583 136 447 65 l 607 100 l 561 -19 q 393 -26 488 -26 q 188 -7 299 -26 z "},"M":{"ha":1057,"x_min":106,"x_max":988,"o":"m 944 -43 q 933 -47 944 -47 q 879 -26 897 -47 q 807 600 807 339 q 811 735 807 668 q 590 36 651 364 l 607 -26 l 576 -49 l 444 8 q 282 743 408 340 q 243 317 269 542 q 189 -12 217 93 q 156 -31 178 -24 q 119 -39 133 -39 q 106 -33 106 -39 l 115 13 q 136 171 125 58 q 147 404 147 283 q 118 822 147 636 l 108 883 l 251 940 l 288 918 q 529 253 415 629 q 832 914 624 507 q 833 918 833 917 l 869 940 l 988 883 q 924 379 924 719 q 944 -43 924 126 z "},"N":{"ha":817,"x_min":92,"x_max":775,"o":"m 775 883 q 708 602 731 772 q 686 278 686 432 q 700 -35 686 124 q 688 -39 700 -39 q 635 -19 647 -39 q 254 650 401 324 q 175 -12 254 294 q 142 -31 164 -24 q 106 -39 119 -39 q 92 -33 92 -39 l 97 -17 q 147 413 147 165 q 134 642 147 525 q 108 822 121 760 l 94 883 l 244 940 l 281 918 q 428 517 340 711 q 606 179 515 322 q 588 494 588 313 q 635 918 588 676 l 669 940 l 775 883 z "},"O":{"ha":807,"x_min":42,"x_max":765,"o":"m 622 939 l 646 904 l 606 824 q 720 653 675 764 q 765 436 765 542 q 744 251 765 331 q 679 102 722 171 q 559 -7 636 33 q 381 -47 482 -47 q 139 63 236 -47 q 42 365 42 172 q 164 719 42 560 q 346 863 228 804 q 622 939 464 922 m 415 68 q 609 163 542 72 q 676 374 676 253 q 636 617 676 496 q 524 810 596 738 q 261 678 347 785 q 175 412 175 572 q 245 160 175 251 q 415 68 315 68 z "},"P":{"ha":667,"x_min":76,"x_max":674,"o":"m 100 292 q 76 347 76 314 q 81 358 76 358 q 167 353 110 353 l 193 353 q 82 864 188 740 l 147 957 q 444 801 251 886 q 561 742 504 775 q 674 572 674 676 q 581 389 674 468 q 276 293 489 310 q 240 -26 268 199 q 197 -47 219 -47 q 174 -43 174 -47 q 193 290 192 147 l 186 290 q 100 292 128 290 m 263 801 q 286 549 286 669 q 281 360 286 428 q 469 434 406 379 q 533 560 533 489 q 494 663 533 624 q 456 700 474 685 q 399 736 439 715 q 263 801 336 768 z "},"Q":{"ha":807,"x_min":38,"x_max":765,"o":"m 88 -286 q 42 -264 64 -286 q 38 -251 38 -264 q 61 -204 42 -217 q 165 -172 96 -192 q 310 -39 244 -112 q 116 92 190 -12 q 42 365 42 197 q 164 719 42 560 q 346 863 228 804 q 622 939 464 922 l 646 904 l 606 824 q 720 653 675 764 q 765 438 765 542 q 746 258 765 335 q 687 114 726 181 q 578 4 647 47 q 417 -46 508 -39 q 317 -144 375 -93 q 435 -140 358 -140 q 607 -167 511 -140 l 626 -201 l 568 -311 q 249 -247 465 -247 q 168 -249 193 -247 q 110 -278 131 -271 q 88 -286 89 -286 m 415 68 q 609 163 542 72 q 676 374 676 253 q 636 617 676 496 q 524 810 596 738 q 261 678 347 785 q 175 412 175 572 q 245 160 175 251 q 415 68 315 68 z "},"R":{"ha":733,"x_min":76,"x_max":733,"o":"m 100 326 q 76 382 76 349 q 81 393 76 393 q 167 388 110 388 l 192 388 q 82 864 183 744 l 147 957 q 444 810 256 888 q 561 754 506 785 q 674 590 674 692 q 634 472 674 529 q 507 378 594 415 q 733 -26 626 114 l 733 -28 q 688 -43 733 -43 q 671 -42 676 -43 q 404 346 575 53 q 279 328 353 335 q 240 -26 274 239 q 197 -47 219 -47 q 174 -43 174 -47 q 193 322 193 142 l 193 325 l 186 325 q 100 326 128 325 m 263 801 q 286 563 286 669 q 282 394 286 456 q 469 462 406 411 q 533 578 533 513 q 494 674 533 636 q 456 708 474 694 q 399 742 439 722 q 337 770 358 761 q 263 801 315 779 z "},"S":{"ha":608,"x_min":0,"x_max":567,"o":"m 567 886 l 521 767 q 372 803 453 803 q 242 774 292 803 q 193 682 193 744 q 321 508 193 606 q 426 426 374 468 q 517 328 479 383 q 554 225 554 274 q 538 137 554 176 q 485 56 522 97 q 368 -12 447 14 q 190 -39 289 -39 q 15 -15 92 -39 q 0 26 0 8 q 2 44 0 44 q 22 39 4 44 q 136 24 79 24 q 326 71 253 24 q 399 192 399 118 q 279 371 399 275 q 179 451 229 411 q 60 639 60 547 q 108 753 60 697 q 543 922 215 876 l 567 886 z "},"T":{"ha":635,"x_min":28,"x_max":642,"o":"m 325 -26 q 265 -46 306 -46 q 256 -42 256 -46 q 286 353 286 143 q 269 751 286 564 q 185 750 246 750 q 50 763 125 750 l 28 799 l 81 918 q 327 871 168 871 q 636 908 486 871 q 642 885 642 908 q 621 843 642 861 q 408 772 510 796 q 325 -26 383 200 z "},"U":{"ha":849,"x_min":111,"x_max":786,"o":"m 303 883 q 257 674 278 804 q 236 424 236 544 q 417 71 236 71 q 550 156 499 71 q 618 361 601 240 q 606 615 606 482 q 632 918 606 749 l 668 940 l 786 883 q 722 379 722 719 q 743 -43 722 126 q 732 -47 743 -47 q 678 -26 696 -47 q 635 221 649 118 q 371 -46 565 -46 q 243 -1 296 -46 q 163 122 190 43 q 111 480 111 267 q 149 918 111 693 l 185 940 l 303 883 z "},"V":{"ha":664,"x_min":35,"x_max":685,"o":"m 336 -39 q 275 -12 297 -39 q 124 406 194 151 q 35 883 53 661 l 156 940 l 192 918 q 186 778 186 856 q 321 56 186 453 q 438 503 351 243 q 611 914 524 763 q 679 940 640 940 q 685 933 685 940 q 668 885 685 926 q 624 767 651 843 q 564 592 596 690 q 446 28 490 357 l 336 -39 z "},"W":{"ha":1117,"x_min":35,"x_max":1124,"o":"m 336 -39 q 275 -12 297 -39 q 124 406 194 151 q 35 883 53 661 l 156 940 l 192 918 q 186 778 186 856 q 321 57 186 454 q 398 410 342 206 q 519 776 454 615 q 508 883 514 811 l 629 940 l 665 918 q 660 778 660 856 q 794 57 660 454 q 897 503 821 244 q 1050 914 972 763 q 1118 940 1079 940 q 1124 935 1124 940 q 1087 825 1124 929 q 999 503 1050 721 q 919 28 947 285 l 810 -39 q 749 -12 771 -39 q 550 604 625 240 q 446 28 479 336 l 336 -39 z "},"X":{"ha":707,"x_min":21,"x_max":735,"o":"m 82 -33 q 67 -39 79 -39 q 21 -11 38 -39 q 271 431 147 229 q 104 903 142 674 l 140 928 l 258 868 q 347 554 276 725 q 574 893 461 735 l 694 921 l 735 889 q 397 442 561 675 q 668 -33 486 254 q 654 -46 668 -46 q 589 -28 604 -46 q 322 335 446 124 q 82 -33 182 128 z "},"Y":{"ha":613,"x_min":76,"x_max":682,"o":"m 197 940 l 233 918 q 304 433 233 663 q 433 658 328 486 q 614 924 539 831 q 674 943 631 943 q 682 937 682 943 q 620 830 682 931 q 481 576 558 729 q 372 303 403 424 q 364 144 364 222 q 368 -28 364 21 l 369 -43 q 358 -47 369 -47 q 324 -41 346 -47 q 296 -26 303 -35 q 264 300 267 129 q 144 605 200 436 q 76 883 89 774 l 197 940 z "},"Z":{"ha":667,"x_min":0,"x_max":640,"o":"m 603 928 l 639 903 q 182 108 579 550 q 624 40 514 76 q 640 -11 640 19 q 638 -42 640 -42 q 335 -11 497 -11 q 26 -33 172 -11 l 0 8 l 10 18 q 468 779 388 454 q 263 754 354 754 q 100 764 171 754 l 43 879 l 64 917 q 392 869 169 869 q 496 874 446 869 l 603 928 z "},"[":{"ha":482,"x_min":118,"x_max":482,"o":"m 171 1042 q 469 989 357 1042 q 482 944 482 976 q 474 903 482 911 q 310 931 389 925 q 219 81 219 675 l 219 -21 q 422 28 318 -11 l 438 3 l 392 -106 q 186 -121 303 -121 l 158 -97 q 118 493 118 214 q 133 775 118 613 q 171 1042 147 938 z "},"\\":{"ha":639,"x_min":0,"x_max":639,"o":"m 572 -136 q 471 83 543 -75 q 360 321 399 240 q 257 531 321 401 q 0 989 138 769 l 44 1025 l 160 994 q 639 -112 360 557 q 589 -143 619 -143 q 572 -136 575 -143 z "},"]":{"ha":482,"x_min":0,"x_max":364,"o":"m 311 -121 q 13 -68 125 -121 q 0 -23 0 -56 q 8 18 0 10 q 172 -10 93 -4 q 263 840 263 246 l 263 942 q 60 893 164 932 l 44 918 l 90 1026 q 296 1042 179 1042 l 324 1018 q 364 428 364 707 q 349 146 364 308 q 311 -121 335 -17 z "},"^":{"ha":694,"x_min":69,"x_max":631,"o":"m 386 783 l 369 783 q 153 424 285 588 l 79 463 l 69 506 q 353 940 242 715 l 436 940 q 631 506 510 696 l 610 463 l 531 424 q 386 783 438 583 z "},"_":{"ha":618,"x_min":0,"x_max":618,"o":"m 0 -60 q 6 -51 0 -51 l 8 -51 q 219 -62 104 -62 q 603 -10 436 -62 l 618 -35 l 572 -143 q 310 -158 446 -158 q 44 -135 175 -158 q 18 -103 32 -129 q 0 -60 4 -78 z "},"`":{"ha":443,"x_min":69,"x_max":374,"o":"m 69 861 l 86 982 l 108 996 q 374 778 215 850 q 356 745 374 764 q 328 725 339 726 q 188 780 246 750 q 69 861 129 810 z "},"a":{"ha":653,"x_min":33,"x_max":586,"o":"m 440 636 l 553 685 l 586 665 q 540 354 540 531 q 553 146 540 279 q 576 -35 565 13 q 556 -39 576 -39 q 515 -19 535 -39 q 444 283 471 83 q 305 57 386 144 q 158 -31 224 -31 q 33 126 33 -31 q 69 300 33 217 q 167 446 106 383 q 440 636 289 569 m 233 136 q 333 208 278 136 q 431 410 388 279 q 429 485 429 429 q 431 567 429 540 q 238 422 311 499 q 164 240 164 344 q 233 136 164 136 z "},"b":{"ha":657,"x_min":75,"x_max":614,"o":"m 121 989 l 233 936 q 247 713 247 838 q 231 431 247 588 q 359 613 288 544 q 494 682 431 682 q 614 525 614 682 q 545 273 614 400 q 355 57 476 146 q 96 -42 233 -32 q 84 -43 93 -43 q 75 -36 75 -43 q 140 510 140 242 q 88 967 140 778 l 121 989 m 190 151 l 165 35 q 402 199 321 88 q 483 413 483 311 q 415 515 483 515 q 297 419 361 515 q 190 151 232 322 z "},"c":{"ha":567,"x_min":57,"x_max":526,"o":"m 526 301 q 410 65 493 161 q 240 -31 328 -31 q 105 32 153 -31 q 57 200 57 94 q 111 425 57 319 q 189 533 142 485 q 315 624 236 582 q 494 692 393 667 l 525 665 l 481 542 q 392 560 435 560 q 235 472 293 560 q 176 271 176 385 q 208 150 176 193 q 286 107 240 107 q 474 313 390 107 q 487 321 475 321 q 526 301 499 321 z "},"d":{"ha":638,"x_min":33,"x_max":583,"o":"m 429 936 l 540 989 l 575 967 q 521 519 521 783 q 583 -36 521 254 q 572 -43 583 -43 q 515 -19 536 -43 q 451 301 482 110 q 311 63 394 156 q 153 -31 228 -31 q 63 12 93 -31 q 33 135 33 54 q 69 308 33 215 q 194 499 104 401 q 417 656 285 597 q 415 765 415 688 q 429 936 415 842 m 435 422 q 421 581 424 528 q 272 478 333 542 q 164 239 164 363 q 233 136 164 136 q 335 211 279 136 q 435 422 392 286 z "},"e":{"ha":592,"x_min":57,"x_max":558,"o":"m 529 511 q 468 396 514 447 q 364 314 422 344 q 176 243 257 258 q 213 140 182 174 q 286 107 243 107 q 507 313 408 107 q 521 321 508 321 q 558 301 533 321 q 412 63 499 157 q 239 -31 325 -31 q 105 32 153 -31 q 57 200 57 94 q 136 469 57 346 q 258 587 179 536 q 444 663 336 638 q 529 511 529 633 m 367 553 q 246 485 308 553 q 176 299 183 418 q 353 388 292 329 q 415 504 415 447 q 403 539 415 525 q 367 553 390 553 z "},"f":{"ha":400,"x_min":15,"x_max":469,"o":"m 428 614 l 386 518 q 244 503 314 503 q 181 -129 232 208 q 122 -153 157 -153 q 111 -146 111 -153 q 146 428 146 125 q 144 507 146 482 q 43 525 101 510 q 25 553 33 529 q 15 592 17 576 l 19 600 q 142 589 75 589 q 126 754 140 611 q 210 883 138 815 q 436 989 283 951 l 469 964 l 438 844 q 338 871 376 871 q 249 690 249 871 q 248 642 249 675 q 247 593 247 610 q 415 638 329 603 l 428 614 z "},"g":{"ha":621,"x_min":25,"x_max":554,"o":"m 438 636 l 518 674 l 553 650 q 554 535 554 622 q 485 10 554 317 q 347 -262 451 -143 q 219 -358 294 -322 q 58 -394 144 -394 l 25 -369 l 57 -235 q 174 -253 121 -253 q 436 282 432 -253 q 303 63 376 143 q 157 -17 229 -17 q 74 27 103 -17 q 44 153 44 71 q 81 315 44 236 q 176 453 117 393 q 438 636 289 568 m 433 422 q 417 561 431 468 q 222 410 289 506 q 156 231 156 315 q 174 162 156 188 q 228 136 193 136 q 333 211 275 136 q 433 422 392 286 z "},"h":{"ha":686,"x_min":94,"x_max":613,"o":"m 490 -26 q 510 271 510 161 q 428 489 510 489 q 301 388 367 489 q 192 101 235 286 l 190 101 q 164 -19 183 67 q 137 -36 156 -29 q 106 -43 118 -43 q 94 -36 94 -43 q 157 519 157 254 q 103 967 157 783 l 138 989 l 249 936 q 263 715 263 843 q 240 411 263 586 q 369 589 299 522 q 501 656 439 656 q 613 499 613 656 q 589 199 613 369 q 561 -11 565 29 q 500 -31 542 -31 q 490 -26 490 -31 z "},"i":{"ha":321,"x_min":97,"x_max":281,"o":"m 243 619 q 246 533 246 578 q 161 1 246 292 q 108 -18 142 -18 q 99 -17 101 -18 q 99 -12 97 -15 q 132 353 132 186 q 97 653 132 519 l 131 674 l 243 619 m 187 757 q 169 757 187 757 q 133 781 151 757 q 114 840 114 804 q 146 903 114 876 q 239 939 178 931 q 281 856 281 904 q 251 783 281 808 q 187 757 222 757 z "},"j":{"ha":321,"x_min":-147,"x_max":297,"o":"m 115 -15 q 146 329 146 161 q 117 650 146 497 l 151 674 l 263 614 q 264 535 264 586 q 194 10 264 317 q -112 -394 118 -326 l -147 -369 l -115 -235 q -67 -239 -89 -239 q 49 -179 3 -239 q 115 -15 96 -119 m 203 785 q 186 785 203 785 q 149 809 168 785 q 130 869 129 833 q 163 931 131 904 q 256 967 194 958 q 297 884 297 932 q 268 810 297 836 q 203 785 239 785 z "},"k":{"ha":625,"x_min":83,"x_max":592,"o":"m 579 632 l 543 485 q 494 490 519 490 q 339 421 415 490 q 451 180 379 310 q 592 -26 522 50 l 592 -28 q 546 -43 592 -43 q 529 -42 533 -43 q 372 131 454 22 q 254 311 290 240 l 253 313 q 176 101 194 213 l 171 96 l 149 -3 q 122 -19 140 -12 q 93 -26 103 -26 q 83 -19 83 -26 q 142 518 142 253 q 88 967 142 783 l 122 989 l 233 936 q 247 695 247 832 q 214 338 247 558 q 543 658 340 594 l 579 632 z "},"l":{"ha":336,"x_min":83,"x_max":256,"o":"m 129 989 l 240 936 q 256 713 256 833 q 242 457 256 593 q 158 -19 213 182 q 129 -36 150 -29 q 96 -43 108 -43 q 83 -36 83 -43 q 149 513 149 242 q 94 967 149 783 l 129 989 z "},"m":{"ha":1039,"x_min":88,"x_max":965,"o":"m 100 -12 q 133 306 133 163 q 123 508 133 449 q 101 607 113 567 q 88 653 89 647 l 121 674 l 233 619 q 244 476 244 524 q 244 418 244 428 q 365 591 299 526 q 488 656 431 656 q 572 613 544 656 q 600 507 600 571 q 596 389 600 443 q 721 582 650 508 q 851 656 792 656 q 938 613 910 656 q 965 506 965 571 q 960 372 965 442 q 948 252 954 301 q 930 117 942 203 q 913 -11 918 32 q 853 -31 896 -31 q 844 -26 844 -31 q 863 271 863 172 q 785 489 863 489 q 663 388 725 489 q 561 101 601 286 q 547 -11 556 64 q 486 -31 531 -31 q 479 -26 479 -31 q 497 271 497 172 q 419 489 497 489 q 315 415 369 489 q 219 201 261 340 q 163 1 201 106 q 122 -18 143 -18 q 100 -12 100 -18 z "},"n":{"ha":692,"x_min":88,"x_max":618,"o":"m 100 -12 q 133 306 133 163 q 123 508 133 449 q 101 607 113 567 q 88 653 89 647 l 121 674 l 233 619 q 244 485 244 539 q 243 406 244 431 q 372 588 301 519 q 503 656 443 656 q 618 499 618 656 q 594 206 618 376 q 565 -11 571 36 q 504 -31 549 -31 q 494 -26 494 -31 q 515 271 515 151 q 433 489 515 489 q 305 388 371 489 q 197 101 239 286 l 194 101 q 163 1 175 35 q 122 -18 143 -18 q 100 -12 100 -18 z "},"o":{"ha":663,"x_min":58,"x_max":594,"o":"m 583 635 l 517 558 q 594 321 594 464 q 465 11 594 119 q 298 -46 397 -46 q 128 33 199 -46 q 58 251 58 113 q 167 517 58 397 q 327 621 224 579 q 568 674 431 663 l 583 635 m 318 81 q 459 153 403 81 q 515 303 515 225 q 439 563 515 471 q 258 467 332 544 q 185 290 185 389 q 220 136 185 192 q 318 81 256 81 z "},"p":{"ha":689,"x_min":64,"x_max":646,"o":"m 107 674 l 218 618 q 232 455 232 522 q 231 360 232 388 q 370 592 288 501 q 519 682 453 682 q 646 525 646 682 q 546 225 646 381 q 405 79 496 147 q 196 -29 314 11 q 133 -358 172 -196 q 75 -382 110 -382 q 64 -375 64 -382 q 126 188 126 -85 q 72 650 126 460 l 107 674 m 217 128 l 215 128 l 207 49 q 437 208 358 101 q 515 415 515 315 q 446 515 515 515 q 324 413 390 515 q 217 128 257 310 z "},"q":{"ha":626,"x_min":33,"x_max":585,"o":"m 490 646 l 550 685 l 585 665 q 513 119 513 358 q 561 -367 513 -119 l 526 -389 l 415 -328 q 404 -94 404 -236 q 443 279 404 49 q 303 56 386 142 q 156 -31 219 -31 q 63 12 93 -31 q 33 126 33 54 q 166 447 33 306 q 490 646 299 588 m 471 561 q 238 420 311 507 q 164 235 164 333 q 232 136 164 136 q 369 253 300 136 q 471 561 438 369 z "},"r":{"ha":457,"x_min":88,"x_max":490,"o":"m 490 644 l 457 485 q 408 490 439 490 q 350 471 378 490 q 299 404 322 451 q 258 306 275 357 q 225 196 242 254 q 198 99 208 138 q 157 -21 188 61 q 106 -42 139 -42 q 94 -36 94 -42 q 131 315 131 140 q 88 650 131 489 l 121 674 l 233 614 q 243 438 243 514 l 243 418 q 461 671 329 619 l 490 644 z "},"s":{"ha":511,"x_min":21,"x_max":479,"o":"m 479 656 l 435 532 q 308 574 371 574 q 206 494 206 574 q 292 368 206 440 q 365 304 329 338 q 451 144 451 225 q 404 25 451 82 q 319 -24 378 -6 q 183 -43 260 -43 q 46 -24 107 -43 q 30 2 39 -18 q 21 31 21 22 q 24 39 21 39 q 44 35 28 39 q 150 24 86 24 q 258 51 214 24 q 301 122 301 79 q 266 207 301 165 q 188 282 231 249 q 110 365 146 315 q 75 464 75 414 q 105 544 75 508 q 174 603 135 579 q 449 682 268 658 l 479 656 z "},"t":{"ha":435,"x_min":19,"x_max":454,"o":"m 454 635 l 413 538 q 274 522 344 524 q 204 -11 247 153 q 146 -31 188 -31 q 136 -26 136 -31 q 167 357 167 171 q 163 525 167 425 q 47 544 89 533 q 30 573 39 549 q 19 611 21 597 l 25 619 q 158 608 79 608 q 143 814 150 761 l 176 838 l 289 778 l 281 615 q 440 657 354 624 l 454 635 z "},"u":{"ha":710,"x_min":99,"x_max":644,"o":"m 221 650 q 201 354 201 465 q 283 136 201 136 q 390 206 335 136 q 488 407 446 276 q 486 497 486 429 q 499 636 486 565 l 610 685 l 644 665 q 599 354 599 531 q 610 144 599 278 q 635 -35 622 11 q 613 -39 635 -39 q 572 -19 592 -39 q 501 282 531 81 q 363 57 444 144 q 210 -31 282 -31 q 99 126 99 -31 q 110 328 99 233 q 134 507 122 422 q 151 636 146 592 q 179 649 158 643 q 210 656 200 656 q 221 650 221 656 z "},"v":{"ha":564,"x_min":74,"x_max":593,"o":"m 593 658 l 592 650 q 452 338 514 510 q 371 10 390 167 l 251 -39 q 199 -19 217 -39 q 112 258 150 94 q 74 556 74 421 q 81 650 74 614 l 115 674 l 226 618 q 201 383 201 514 q 238 58 201 251 q 363 367 278 200 q 529 644 447 535 q 589 664 556 664 q 593 658 593 664 z "},"w":{"ha":914,"x_min":74,"x_max":944,"o":"m 944 658 l 942 650 q 802 339 864 511 q 719 10 740 167 l 626 -39 q 574 -19 592 -39 q 457 422 488 186 q 344 10 368 200 l 251 -39 q 199 -19 217 -39 q 112 258 150 94 q 74 556 74 421 q 81 650 74 614 l 115 674 l 226 618 q 201 384 201 514 q 238 61 201 254 q 326 311 268 176 q 449 556 385 446 q 456 650 449 614 l 490 674 l 601 618 q 576 391 576 514 q 613 63 576 268 q 728 370 651 204 q 881 644 806 536 q 939 664 906 664 q 944 658 944 664 z "},"x":{"ha":593,"x_min":25,"x_max":601,"o":"m 88 -24 q 64 -28 83 -28 q 25 -8 44 -28 q 210 294 125 163 q 71 650 90 485 l 106 674 l 217 618 q 281 401 231 515 q 458 647 385 556 l 571 667 l 601 644 q 325 307 442 463 q 540 -24 407 149 q 526 -33 540 -33 q 465 -19 482 -33 q 258 219 351 90 q 88 -24 156 78 z "},"y":{"ha":564,"x_min":11,"x_max":593,"o":"m 593 658 l 592 650 q 354 7 451 419 q 46 -394 276 -326 l 11 -369 l 44 -235 q 92 -239 72 -239 q 285 -25 222 -239 q 236 -44 254 -44 q 207 -39 218 -44 q 114 244 154 71 q 74 556 74 417 q 81 650 74 614 l 115 674 l 226 618 q 201 384 201 514 q 238 58 201 254 q 363 366 278 199 q 529 644 447 533 q 589 664 556 664 q 593 658 593 664 z "},"z":{"ha":565,"x_min":33,"x_max":549,"o":"m 535 46 q 549 2 549 28 q 546 -24 549 -24 q 302 3 432 3 q 56 -17 172 3 l 33 18 q 109 106 63 51 q 249 294 156 161 q 381 518 343 428 q 251 499 335 499 q 106 515 167 499 l 58 638 l 82 674 q 339 617 208 617 q 468 639 425 617 l 483 646 l 531 549 q 176 103 481 383 q 535 46 435 79 z "},"{":{"ha":482,"x_min":50,"x_max":482,"o":"m 50 446 l 54 517 q 136 538 101 517 q 133 654 133 590 q 140 781 133 718 q 163 904 147 844 q 210 999 179 964 q 285 1033 242 1033 q 469 989 351 1033 q 482 944 482 976 q 474 903 482 911 q 310 931 389 925 q 244 611 267 811 q 163 476 233 522 q 218 416 203 449 q 233 347 233 383 q 226 207 233 310 q 219 -21 219 104 q 422 28 318 -11 l 438 3 l 392 -106 q 300 -115 343 -115 q 144 -47 186 -115 q 103 153 103 22 q 132 404 103 285 q 50 446 100 432 z "},"|":{"ha":439,"x_min":150,"x_max":328,"o":"m 172 -131 q 169 -117 172 -131 q 158 50 167 -103 q 150 485 150 203 q 175 1021 150 767 l 211 1042 l 328 965 q 265 481 289 806 q 240 -131 240 156 q 190 -158 222 -158 q 172 -131 176 -158 z "},"}":{"ha":482,"x_min":0,"x_max":432,"o":"m 432 472 l 428 401 q 346 381 381 401 q 349 264 349 328 q 342 137 349 200 q 319 14 335 74 q 272 -81 303 -46 q 197 -115 240 -115 q 13 -71 131 -115 q 0 -26 0 -58 q 8 15 0 7 q 172 -12 93 -7 q 238 307 215 107 q 319 442 249 396 q 264 502 279 469 q 249 572 249 535 q 256 711 249 608 q 263 939 263 814 q 60 890 164 929 l 44 915 l 90 1024 q 182 1033 139 1033 q 338 965 296 1033 q 379 765 379 896 q 350 514 379 633 q 432 472 382 486 z "},"~":{"ha":694,"x_min":71,"x_max":615,"o":"m 589 525 l 615 468 q 608 404 614 444 q 510 372 561 372 q 370 403 460 372 q 232 433 281 433 q 83 360 149 433 q 79 357 81 357 q 71 392 71 357 q 72 436 71 428 q 253 532 146 532 q 367 513 292 532 q 488 494 442 494 q 589 525 535 494 z "},"¡":{"ha":294,"x_min":-7,"x_max":267,"o":"m 210 344 q 143 -308 210 -43 l 106 -326 l -7 -260 q 83 28 40 -164 q 138 386 125 219 q 189 403 158 403 q 210 344 210 403 m 182 694 q 202 694 182 694 q 244 668 222 694 q 267 601 267 642 q 229 528 267 560 q 124 488 192 497 q 75 581 75 525 q 108 666 75 638 q 182 694 142 694 z "},"¢":{"ha":694,"x_min":135,"x_max":557,"o":"m 543 758 l 508 669 q 433 675 476 675 q 348 655 390 675 q 283 600 306 635 q 240 444 240 535 q 269 300 240 354 q 347 246 299 246 q 494 431 443 246 q 515 446 500 446 q 557 426 529 446 q 494 256 540 325 q 388 161 449 188 q 364 -92 378 24 q 319 -96 351 -96 q 264 -85 288 -96 q 299 150 281 -8 q 178 231 222 161 q 135 408 135 300 q 231 650 135 543 q 364 746 283 710 q 399 996 389 908 q 446 976 436 996 q 431 771 438 840 q 521 792 471 783 l 543 758 z "},"£":{"ha":694,"x_min":43,"x_max":649,"o":"m 549 471 l 507 375 q 358 360 426 360 q 268 361 290 360 q 233 107 257 242 q 633 40 538 75 q 649 -12 649 17 q 646 -42 649 -42 q 361 -11 515 -11 q 69 -33 207 -11 l 43 8 l 149 115 q 164 369 164 258 q 83 382 124 374 q 59 410 71 386 q 46 449 47 435 l 53 457 q 163 447 129 449 q 156 656 156 611 q 172 738 156 701 q 232 814 188 775 q 619 922 324 894 l 642 886 l 597 767 q 442 817 522 817 q 333 784 363 817 q 292 668 303 751 q 275 446 292 667 q 536 494 421 447 l 549 471 z "},"¤":{"ha":694,"x_min":42,"x_max":657,"o":"m 383 697 q 456 685 422 697 q 557 788 511 751 l 628 754 l 657 710 q 551 611 606 667 q 583 473 583 557 q 529 314 583 389 q 654 199 597 246 q 656 192 656 197 q 635 171 656 188 q 596 147 615 154 q 465 254 513 213 q 338 214 404 214 q 228 235 272 214 q 140 126 167 163 q 133 124 138 124 q 110 144 129 125 q 85 182 92 164 q 163 292 96 199 q 126 416 126 343 q 144 535 126 489 q 42 642 86 585 l 79 711 l 122 738 q 213 636 160 689 q 383 697 282 697 m 514 469 q 514 501 514 469 q 476 565 514 533 q 368 596 438 596 q 247 551 299 596 q 194 442 194 507 q 232 347 194 378 q 338 315 269 315 q 460 360 406 315 q 514 469 514 406 z "},"¥":{"ha":694,"x_min":83,"x_max":714,"o":"m 385 -43 q 374 -47 385 -47 q 319 -26 338 -47 q 285 206 294 93 q 136 225 197 213 q 112 253 124 229 q 99 292 100 278 l 106 300 q 279 289 199 289 q 278 353 278 311 q 264 383 275 358 q 129 401 207 386 q 105 430 117 406 q 92 468 93 454 l 99 476 q 226 467 157 469 q 83 915 111 738 l 119 940 l 238 881 q 342 478 257 725 q 553 913 472 797 l 674 940 l 714 908 q 428 474 606 774 q 582 514 504 483 l 594 490 l 553 394 q 383 379 474 379 l 376 290 q 589 338 489 299 l 601 314 l 560 218 q 388 203 479 203 l 374 203 l 374 179 q 385 -43 374 88 z "},"¦":{"ha":439,"x_min":150,"x_max":328,"o":"m 232 361 q 256 335 256 361 q 251 272 256 324 q 240 -132 240 138 q 190 -158 222 -158 q 174 -141 179 -158 q 160 3 168 -124 q 150 335 153 129 q 232 361 185 361 m 274 593 q 179 560 236 560 q 158 574 164 560 q 153 692 153 589 q 175 1021 153 796 l 211 1042 l 328 965 q 274 593 296 835 z "},"§":{"ha":699,"x_min":49,"x_max":615,"o":"m 153 543 q 344 326 190 444 q 465 231 406 279 q 603 10 603 118 q 533 -150 603 -72 q 417 -218 496 -192 q 239 -244 338 -244 q 64 -221 140 -244 q 49 -179 49 -197 q 51 -161 49 -161 q 69 -167 53 -161 q 185 -182 118 -182 q 374 -135 301 -182 q 447 -14 447 -87 q 328 164 447 64 q 229 245 279 204 q 144 335 179 286 q 110 437 110 385 q 153 543 110 489 m 574 228 q 435 399 521 317 q 280 528 349 481 q 160 637 211 576 q 108 758 108 697 q 157 872 108 817 q 592 1042 264 996 l 615 1006 l 569 886 q 421 922 501 922 q 291 893 340 922 q 242 801 242 864 q 369 632 242 736 q 476 544 422 589 q 567 442 529 499 q 604 335 604 385 q 574 228 604 286 z "},"¨":{"ha":557,"x_min":69,"x_max":488,"o":"m 69 836 q 188 936 69 919 q 228 858 228 904 q 200 787 228 811 q 139 763 172 763 q 88 785 106 763 q 69 836 69 808 m 329 836 q 447 936 329 919 q 488 858 488 904 q 460 787 488 811 q 399 763 432 763 q 347 785 365 763 q 329 836 329 808 z "},"©":{"ha":1031,"x_min":69,"x_max":961,"o":"m 692 860 l 657 771 q 582 776 625 776 q 497 756 539 776 q 432 703 454 736 q 389 546 389 636 q 418 401 389 456 q 494 347 447 347 q 643 532 592 347 q 663 547 649 547 q 706 528 678 547 q 619 325 686 400 q 469 250 553 250 q 335 322 386 250 q 283 510 283 393 q 367 739 283 632 q 488 836 410 794 q 669 893 565 878 l 692 860 m 576 1033 q 853 926 744 1033 q 961 603 961 818 q 816 240 961 388 q 453 92 671 92 q 177 199 285 92 q 69 522 69 306 q 214 885 69 738 q 576 1033 358 1033 m 576 971 q 274 841 394 971 q 153 524 153 711 q 237 246 153 338 q 453 154 321 154 q 756 284 635 154 q 878 601 878 414 q 792 879 878 788 q 576 971 707 971 z "},"ª":{"ha":419,"x_min":25,"x_max":372,"o":"m 269 1000 l 342 1032 l 372 1013 q 342 828 342 924 q 349 707 342 785 q 364 603 357 629 q 347 588 364 588 q 315 601 329 588 q 292 644 301 615 q 271 747 282 682 q 190 637 236 681 q 106 593 143 593 q 25 696 25 593 q 97 877 25 799 q 269 1000 169 956 m 256 933 q 154 847 193 903 q 115 746 115 792 q 144 700 115 700 q 209 739 174 700 q 260 831 244 778 q 256 933 256 863 z "},"«":{"ha":756,"x_min":56,"x_max":672,"o":"m 56 325 l 63 410 q 196 517 138 458 q 335 674 254 575 l 360 657 l 374 536 q 165 376 299 460 l 164 358 q 281 267 247 299 q 344 199 315 235 l 308 78 l 281 61 q 56 325 182 236 m 354 325 l 361 410 q 494 517 436 458 q 633 674 553 575 l 658 657 l 672 536 q 464 376 597 460 l 463 358 q 580 267 546 299 q 643 199 614 235 l 607 78 l 579 61 q 354 325 481 236 z "},"¬":{"ha":694,"x_min":53,"x_max":618,"o":"m 618 521 l 574 415 q 565 292 565 358 q 592 140 565 225 q 569 138 592 138 q 531 149 546 138 q 463 397 467 275 q 285 390 382 390 q 85 415 189 390 q 65 447 75 421 q 53 490 56 474 l 58 499 q 219 488 129 488 q 429 506 308 488 q 603 546 550 525 l 618 521 z "},"®":{"ha":1031,"x_min":69,"x_max":961,"o":"m 372 503 q 324 828 372 735 l 368 894 q 517 825 422 863 q 653 757 611 788 q 694 678 694 726 q 670 601 694 629 q 594 547 646 574 q 617 492 601 532 q 643 431 633 453 q 667 378 653 410 q 718 282 694 317 q 658 260 704 260 q 500 521 571 382 l 454 517 q 429 268 450 432 q 385 249 410 249 q 360 263 360 249 q 372 503 372 363 m 576 1033 q 853 926 744 1033 q 961 603 961 818 q 816 240 961 388 q 453 92 671 92 q 177 199 285 92 q 69 522 69 306 q 214 885 69 738 q 576 1033 358 1033 m 576 971 q 274 841 394 971 q 153 524 153 711 q 237 246 153 338 q 453 154 321 154 q 756 284 635 154 q 878 601 878 414 q 792 879 878 788 q 576 971 707 971 m 447 776 q 457 583 457 706 q 586 678 586 603 q 447 776 586 735 z "},"¯":{"ha":435,"x_min":56,"x_max":399,"o":"m 63 883 q 174 872 115 872 q 381 926 299 872 l 399 900 l 365 800 q 223 785 296 785 q 79 808 150 785 q 63 838 71 814 q 56 873 56 863 q 63 883 56 883 z "},"°":{"ha":421,"x_min":42,"x_max":379,"o":"m 42 784 q 42 825 42 784 q 95 923 42 867 q 222 979 149 979 q 338 939 296 979 q 379 816 379 899 q 324 677 379 733 q 197 621 269 621 q 83 661 124 621 q 42 784 42 701 m 313 813 q 219 886 313 886 q 140 858 174 886 q 107 791 107 831 q 131 733 107 751 q 199 714 156 714 q 278 742 243 714 q 313 813 313 769 z "},"±":{"ha":694,"x_min":64,"x_max":636,"o":"m 290 864 l 368 883 l 418 867 q 393 667 397 760 q 535 678 479 678 q 611 676 592 678 l 636 600 l 624 547 q 488 558 532 558 q 393 556 443 558 q 414 315 397 439 q 381 308 414 308 q 333 314 349 308 q 292 547 301 457 q 75 511 214 539 q 64 546 64 511 q 67 592 64 581 q 282 646 185 626 q 281 728 281 668 q 290 864 281 788 m 611 207 l 636 131 l 624 78 q 464 89 532 89 q 75 42 294 89 q 64 77 64 42 q 67 122 64 113 q 551 208 365 208 q 611 207 592 208 z "},"²":{"ha":417,"x_min":-7,"x_max":388,"o":"m 347 1015 q 135 690 347 911 q 372 651 303 676 q 388 603 388 636 q 371 586 388 586 q 198 604 292 604 q 11 590 104 604 l -7 628 q 176 859 111 765 q 240 1013 240 953 q 172 1078 240 1078 q 42 1042 104 1078 l 26 1079 l 61 1144 q 154 1153 119 1153 q 305 1112 263 1153 q 347 1015 347 1071 z "},"³":{"ha":417,"x_min":18,"x_max":364,"o":"m 200 915 l 203 907 q 319 862 275 903 q 364 749 364 821 q 303 628 364 676 q 163 581 243 581 q 18 618 83 581 q 27 651 18 632 q 46 671 36 671 q 140 643 92 643 q 221 674 188 643 q 254 753 254 704 q 227 825 254 801 q 158 849 200 849 q 81 831 117 849 l 60 868 q 253 1079 181 972 q 47 1043 124 1079 l 32 1079 l 67 1144 q 164 1153 117 1153 q 349 1119 268 1153 q 364 1076 364 1101 q 200 915 315 1004 z "},"´":{"ha":443,"x_min":69,"x_max":374,"o":"m 357 982 l 374 861 q 256 780 314 810 q 115 725 197 750 q 87 745 104 726 q 69 778 69 764 q 335 996 228 850 l 357 982 z "},"µ":{"ha":710,"x_min":96,"x_max":644,"o":"m 221 650 q 201 354 201 465 q 283 125 201 125 q 390 199 335 125 q 488 407 446 272 q 486 497 486 429 q 499 636 486 565 l 610 685 l 644 665 q 599 354 599 531 q 610 144 599 278 q 635 -35 622 11 q 613 -39 635 -39 q 572 -19 592 -39 q 501 282 531 81 q 281 -1 386 -1 q 189 58 233 -1 q 175 -143 175 -36 q 176 -281 175 -250 q 175 -312 178 -311 q 151 -314 172 -314 q 119 -297 129 -314 q 96 65 96 -100 q 151 636 96 322 q 179 649 158 643 q 210 656 200 656 q 221 650 221 656 z "},"¶":{"ha":600,"x_min":0,"x_max":579,"o":"m 457 -117 q 446 -121 457 -121 q 417 -114 435 -121 q 393 -97 400 -107 q 350 454 351 217 q 149 356 264 356 q 42 397 83 356 q 0 518 0 438 q 136 807 0 669 q 546 1043 272 944 l 579 1024 q 476 605 500 825 q 451 167 451 385 q 457 -117 451 -50 z "},"·":{"ha":294,"x_min":54,"x_max":246,"o":"m 139 276 q 119 276 139 276 q 76 303 99 276 q 54 370 54 329 q 92 442 54 411 q 197 483 129 474 q 246 390 246 446 q 213 305 246 333 q 139 276 179 276 z "},"¸":{"ha":567,"x_min":107,"x_max":392,"o":"m 229 0 l 279 0 l 233 -87 q 292 -79 256 -79 q 360 -103 328 -79 q 392 -177 392 -128 q 344 -269 392 -226 q 229 -312 297 -312 q 114 -286 161 -312 l 107 -265 l 142 -199 q 233 -254 172 -254 q 283 -234 264 -254 q 303 -190 303 -214 q 288 -152 303 -167 q 244 -137 272 -137 q 192 -150 217 -137 l 172 -124 l 229 0 z "},"¹":{"ha":417,"x_min":28,"x_max":318,"o":"m 260 694 q 261 618 260 649 q 260 586 263 588 q 235 585 257 585 q 204 601 214 585 q 178 947 178 772 q 179 971 178 961 q 76 910 142 940 q 47 926 65 910 q 28 958 29 942 q 196 1108 117 1008 q 206 1163 203 1154 l 239 1181 l 318 1140 q 260 694 260 1004 z "},"º":{"ha":425,"x_min":39,"x_max":375,"o":"m 369 988 l 331 946 q 375 806 375 892 q 327 653 375 721 q 193 585 279 585 q 83 633 128 585 q 39 771 39 681 q 115 935 39 861 q 354 1024 190 1010 l 369 988 m 269 938 q 167 876 203 926 q 131 774 131 826 q 152 690 131 721 q 212 658 174 658 q 278 697 250 658 q 307 811 307 735 q 269 938 307 888 z "},"»":{"ha":756,"x_min":83,"x_max":700,"o":"m 401 410 l 394 325 q 261 218 319 276 q 122 61 203 160 l 97 78 l 83 199 q 292 358 158 275 l 293 376 q 176 468 210 436 q 113 536 142 500 l 149 657 l 176 674 q 401 410 275 499 m 700 410 l 693 325 q 560 218 618 276 q 421 61 501 160 l 396 78 l 382 199 q 590 358 457 275 l 592 376 q 474 468 508 436 q 411 536 440 500 l 447 657 l 475 674 q 700 410 574 499 z "},"¼":{"ha":1124,"x_min":57,"x_max":1017,"o":"m 271 -136 q 254 -143 267 -143 q 204 -112 224 -143 q 683 994 483 557 l 799 1025 l 843 989 q 614 585 706 769 q 483 321 522 401 q 372 83 444 240 q 271 -136 300 -75 m 289 454 q 290 378 289 408 q 289 346 292 347 q 265 344 286 344 q 233 361 243 344 q 207 707 207 532 q 208 731 207 721 q 106 669 171 700 q 76 685 94 669 q 57 718 58 701 q 225 868 146 768 q 235 922 233 914 l 268 940 l 347 900 q 289 454 289 764 m 872 564 q 1006 524 943 564 q 950 210 957 411 l 999 228 l 1017 194 l 982 118 q 947 111 971 114 l 947 92 q 949 9 947 33 q 948 -17 951 -15 q 924 -18 944 -18 q 892 -1 903 -18 q 876 106 878 90 q 826 104 857 104 q 650 129 724 104 q 629 179 629 144 l 700 292 q 872 564 815 476 m 874 439 q 739 181 767 236 q 869 190 807 181 q 867 307 867 229 q 874 439 867 385 z "},"½":{"ha":1124,"x_min":57,"x_max":1026,"o":"m 271 -136 q 254 -143 267 -143 q 204 -112 224 -143 q 683 994 483 557 l 799 1025 l 843 989 q 614 585 706 769 q 483 321 522 401 q 372 83 444 240 q 271 -136 300 -75 m 289 454 q 290 378 289 408 q 289 346 292 347 q 265 344 286 344 q 233 361 243 344 q 207 707 207 532 q 208 731 207 721 q 106 669 171 700 q 76 685 94 669 q 57 718 58 701 q 225 868 146 768 q 235 922 233 914 l 268 940 l 347 900 q 289 454 289 764 m 986 413 q 774 88 986 308 q 1011 49 942 74 q 1026 0 1026 33 q 1010 -17 1026 -17 q 837 1 931 1 q 650 -12 743 1 l 632 25 q 815 256 750 163 q 879 410 879 350 q 811 475 879 475 q 681 439 743 475 l 665 476 l 700 542 q 793 550 758 550 q 944 509 901 550 q 986 413 986 468 z "},"¾":{"ha":1124,"x_min":13,"x_max":1017,"o":"m 342 -136 q 325 -143 339 -143 q 275 -112 294 -143 q 754 994 554 557 l 869 1025 l 914 989 q 685 585 776 769 q 554 321 593 401 q 443 83 515 240 q 342 -136 371 -75 m 194 675 l 197 667 q 314 622 269 663 q 358 508 358 581 q 298 388 358 436 q 158 340 238 340 q 13 378 78 340 q 22 411 13 392 q 40 431 31 431 q 134 403 86 403 q 215 433 182 403 q 249 513 249 464 q 222 585 249 561 q 153 608 194 608 q 75 590 111 608 l 54 628 q 247 839 175 732 q 42 803 118 839 l 26 839 l 61 904 q 158 913 111 913 q 343 879 263 913 q 358 836 358 861 q 194 675 310 764 m 872 564 q 1006 524 943 564 q 950 210 957 411 l 999 228 l 1017 194 l 982 118 q 947 111 971 114 l 947 92 q 949 9 947 33 q 948 -17 951 -15 q 924 -18 944 -18 q 892 -1 903 -18 q 876 106 878 90 q 826 104 857 104 q 650 129 724 104 q 629 179 629 144 l 700 292 q 872 564 815 476 m 874 439 q 739 181 767 236 q 869 190 807 181 q 867 307 867 229 q 874 439 867 385 z "},"¿":{"ha":563,"x_min":31,"x_max":472,"o":"m 251 351 q 288 401 251 401 q 409 327 368 372 q 450 238 450 282 q 421 151 450 194 q 350 75 392 107 q 267 13 308 43 q 165 -126 165 -60 q 200 -190 165 -169 q 292 -211 235 -211 q 422 -167 350 -211 l 469 -301 l 436 -329 q 72 -200 158 -307 q 31 -98 31 -151 q 60 -1 31 -44 q 130 76 89 43 q 211 139 171 108 q 311 267 311 213 q 251 351 311 322 m 388 694 q 408 694 388 694 q 450 668 428 694 q 472 601 472 642 q 435 528 472 560 q 329 488 397 497 q 281 581 281 525 q 314 666 281 638 q 388 694 347 694 z "},"À":{"ha":697,"x_min":-33,"x_max":647,"o":"m 529 914 q 522 758 522 840 q 647 -43 522 421 q 636 -47 643 -46 q 582 -26 600 -47 q 479 268 535 74 q 303 253 385 253 q 190 256 222 253 q 44 -26 125 119 q -7 -47 19 -47 q -33 -43 -33 -47 q 106 267 19 61 q 53 278 89 269 q 32 339 32 300 q 36 349 32 349 q 53 344 40 349 q 131 331 82 336 q 315 860 264 657 l 468 940 q 529 914 507 940 m 224 326 q 456 358 354 329 q 383 725 399 574 q 224 326 304 507 m 319 1107 l 336 1228 l 358 1242 q 624 1024 465 1096 q 606 991 624 1010 q 578 971 589 972 q 438 1026 496 996 q 319 1107 379 1056 z "},"Á":{"ha":697,"x_min":-33,"x_max":647,"o":"m 529 914 q 522 758 522 840 q 647 -43 522 421 q 636 -47 643 -46 q 582 -26 600 -47 q 479 268 535 74 q 303 253 385 253 q 190 256 222 253 q 44 -26 125 119 q -7 -47 19 -47 q -33 -43 -33 -47 q 106 267 19 61 q 53 278 89 269 q 32 339 32 300 q 36 349 32 349 q 53 344 40 349 q 131 331 82 336 q 315 860 264 657 l 468 940 q 529 914 507 940 m 224 326 q 456 358 354 329 q 383 725 399 574 q 224 326 304 507 m 571 1228 l 588 1107 q 469 1026 528 1056 q 329 971 411 996 q 301 991 318 972 q 283 1024 283 1010 q 549 1242 442 1096 l 571 1228 z "},"Â":{"ha":697,"x_min":-33,"x_max":647,"o":"m 529 914 q 522 758 522 840 q 647 -43 522 421 q 636 -47 643 -46 q 582 -26 600 -47 q 479 268 535 74 q 303 253 385 253 q 190 256 222 253 q 44 -26 125 119 q -7 -47 19 -47 q -33 -43 -33 -47 q 106 267 19 61 q 53 278 89 269 q 32 339 32 300 q 36 349 32 349 q 53 344 40 349 q 131 331 82 336 q 315 860 264 657 l 468 940 q 529 914 507 940 m 224 326 q 456 358 354 329 q 383 725 399 574 q 224 326 304 507 m 496 1228 q 638 1015 547 1106 l 624 993 l 536 979 q 469 1079 496 1021 q 301 971 393 1007 q 273 991 290 972 q 256 1024 256 1010 q 463 1228 389 1113 l 496 1228 z "},"Ã":{"ha":697,"x_min":-33,"x_max":663,"o":"m 529 914 q 522 758 522 840 q 647 -43 522 421 q 636 -47 643 -46 q 582 -26 600 -47 q 479 268 535 74 q 303 253 385 253 q 190 256 222 253 q 44 -26 125 119 q -7 -47 19 -47 q -33 -43 -33 -47 q 106 267 19 61 q 53 278 89 269 q 32 339 32 300 q 36 349 32 349 q 53 344 40 349 q 131 331 82 336 q 315 860 264 657 l 468 940 q 529 914 507 940 m 224 326 q 456 358 354 329 q 383 725 399 574 q 224 326 304 507 m 294 1004 l 275 1015 l 250 1088 q 301 1139 267 1118 q 370 1160 335 1160 q 451 1140 406 1160 q 524 1119 496 1119 q 626 1181 585 1119 q 651 1171 640 1181 q 663 1151 663 1161 q 511 1021 607 1021 q 438 1033 478 1021 q 382 1044 397 1044 q 294 1004 344 1044 z "},"Ä":{"ha":697,"x_min":-33,"x_max":682,"o":"m 529 914 q 522 758 522 840 q 647 -43 522 421 q 636 -47 643 -46 q 582 -26 600 -47 q 479 268 535 74 q 303 253 385 253 q 190 256 222 253 q 44 -26 125 119 q -7 -47 19 -47 q -33 -43 -33 -47 q 106 267 19 61 q 53 278 89 269 q 32 339 32 300 q 36 349 32 349 q 53 344 40 349 q 131 331 82 336 q 315 860 264 657 l 468 940 q 529 914 507 940 m 224 326 q 456 358 354 329 q 383 725 399 574 q 224 326 304 507 m 264 1082 q 382 1182 264 1165 q 422 1103 422 1150 q 394 1033 422 1057 q 333 1008 367 1008 q 282 1031 300 1008 q 264 1082 264 1054 m 524 1082 q 642 1182 524 1165 q 682 1103 682 1150 q 654 1033 682 1057 q 593 1008 626 1008 q 542 1031 560 1008 q 524 1082 524 1054 z "},"Å":{"ha":697,"x_min":-33,"x_max":647,"o":"m 529 914 q 522 758 522 840 q 647 -43 522 421 q 636 -47 643 -46 q 582 -26 600 -47 q 479 268 535 74 q 303 253 385 253 q 190 256 222 253 q 44 -26 125 119 q -7 -47 19 -47 q -33 -43 -33 -47 q 106 267 19 61 q 53 278 89 269 q 32 339 32 300 q 36 349 32 349 q 53 344 40 349 q 131 331 82 336 q 315 860 264 657 l 468 940 q 529 914 507 940 m 335 1085 q 335 1115 335 1085 q 378 1185 335 1144 q 478 1225 421 1225 q 569 1197 536 1225 q 603 1109 603 1168 q 559 1010 603 1050 q 458 969 515 969 q 367 998 400 969 q 335 1085 335 1026 m 476 1154 q 435 1136 451 1154 q 418 1090 418 1118 q 460 1040 418 1040 q 502 1058 485 1040 q 519 1104 519 1076 q 476 1154 519 1154 m 224 326 q 456 358 354 329 q 383 725 399 574 q 224 326 304 507 z "},"Æ":{"ha":1061,"x_min":-11,"x_max":1026,"o":"m 481 940 q 740 882 592 882 q 1003 940 889 882 l 1026 904 l 981 785 q 798 772 888 772 q 622 786 708 772 q 569 424 575 574 q 881 518 739 457 l 893 494 l 851 399 q 569 343 701 363 q 734 33 579 33 q 946 285 889 33 q 956 296 949 296 q 999 276 975 296 q 715 -46 942 -46 q 461 329 492 -46 q 319 321 358 321 q 269 321 279 321 q 67 -26 164 119 q 15 -47 42 -47 q -11 -43 -11 -47 q 181 328 107 175 q 75 350 119 335 q 54 392 54 374 q 58 410 54 410 q 210 392 115 394 q 379 871 342 679 l 481 940 m 306 392 q 457 406 364 393 q 456 533 456 431 q 478 779 456 636 q 306 392 404 583 z "},"Ç":{"ha":678,"x_min":42,"x_max":664,"o":"m 643 904 l 597 785 q 515 790 558 790 q 346 756 418 790 q 236 667 274 722 q 165 426 165 557 q 218 166 165 256 q 344 76 271 76 q 503 151 439 76 q 611 382 567 226 q 621 393 614 393 q 664 374 640 393 q 537 69 636 183 q 324 -44 438 -44 q 293 -42 313 -44 l 269 -87 q 328 -79 292 -79 q 396 -103 364 -79 q 428 -177 428 -128 q 381 -269 428 -226 q 265 -312 333 -312 q 150 -286 197 -312 l 143 -265 l 178 -199 q 269 -254 208 -254 q 319 -234 300 -254 q 339 -190 339 -214 q 324 -152 339 -167 q 281 -137 308 -137 q 228 -150 253 -137 l 208 -124 l 249 -35 q 96 97 150 -6 q 42 350 42 199 q 121 636 42 503 q 228 769 164 710 q 393 875 292 829 q 619 940 494 921 l 643 904 z "},"È":{"ha":753,"x_min":82,"x_max":704,"o":"m 585 510 l 543 414 q 389 399 463 399 q 261 403 315 399 q 260 347 260 383 q 299 123 260 211 q 419 35 339 35 q 547 94 499 35 q 633 285 596 153 q 643 296 636 296 q 686 276 663 296 q 396 -46 622 -46 q 147 415 156 -46 l 119 421 q 95 449 107 425 q 82 488 83 474 l 89 496 q 149 489 126 490 q 174 808 156 703 l 140 817 q 120 844 128 825 q 113 871 113 863 q 115 879 113 879 l 214 871 l 315 940 l 351 918 l 335 869 q 681 940 546 872 l 704 904 l 658 785 q 474 772 561 772 q 314 782 386 772 q 267 485 281 640 l 299 485 q 572 533 449 485 l 585 510 m 281 1107 l 297 1228 l 319 1242 q 585 1024 426 1096 q 567 991 585 1010 q 539 971 550 972 q 399 1026 457 996 q 281 1107 340 1056 z "},"É":{"ha":753,"x_min":82,"x_max":704,"o":"m 585 510 l 543 414 q 389 399 463 399 q 261 403 315 399 q 260 347 260 383 q 299 123 260 211 q 419 35 339 35 q 547 94 499 35 q 633 285 596 153 q 643 296 636 296 q 686 276 663 296 q 396 -46 622 -46 q 147 415 156 -46 l 119 421 q 95 449 107 425 q 82 488 83 474 l 89 496 q 149 489 126 490 q 174 808 156 703 l 140 817 q 120 844 128 825 q 113 871 113 863 q 115 879 113 879 l 214 871 l 315 940 l 351 918 l 335 869 q 681 940 546 872 l 704 904 l 658 785 q 474 772 561 772 q 314 782 386 772 q 267 485 281 640 l 299 485 q 572 533 449 485 l 585 510 m 600 1228 l 617 1107 q 499 1026 557 1056 q 358 971 440 996 q 330 991 347 972 q 313 1024 313 1010 q 578 1242 471 1096 l 600 1228 z "},"Ê":{"ha":753,"x_min":82,"x_max":704,"o":"m 585 510 l 543 414 q 389 399 463 399 q 261 403 315 399 q 260 347 260 383 q 299 123 260 211 q 419 35 339 35 q 547 94 499 35 q 633 285 596 153 q 643 296 636 296 q 686 276 663 296 q 396 -46 622 -46 q 147 415 156 -46 l 119 421 q 95 449 107 425 q 82 488 83 474 l 89 496 q 149 489 126 490 q 174 808 156 703 l 140 817 q 120 844 128 825 q 113 871 113 863 q 115 879 113 879 l 214 871 l 315 940 l 351 918 l 335 869 q 681 940 546 872 l 704 904 l 658 785 q 474 772 561 772 q 314 782 386 772 q 267 485 281 640 l 299 485 q 572 533 449 485 l 585 510 m 508 1228 q 650 1015 560 1106 l 636 993 l 549 979 q 482 1079 508 1021 q 314 971 406 1007 q 285 991 303 972 q 268 1024 268 1010 q 475 1228 401 1113 l 508 1228 z "},"Ë":{"ha":753,"x_min":82,"x_max":704,"o":"m 585 510 l 543 414 q 389 399 463 399 q 261 403 315 399 q 260 347 260 383 q 299 123 260 211 q 419 35 339 35 q 547 94 499 35 q 633 285 596 153 q 643 296 636 296 q 686 276 663 296 q 396 -46 622 -46 q 147 415 156 -46 l 119 421 q 95 449 107 425 q 82 488 83 474 l 89 496 q 149 489 126 490 q 174 808 156 703 l 140 817 q 120 844 128 825 q 113 871 113 863 q 115 879 113 879 l 214 871 l 315 940 l 351 918 l 335 869 q 681 940 546 872 l 704 904 l 658 785 q 474 772 561 772 q 314 782 386 772 q 267 485 281 640 l 299 485 q 572 533 449 485 l 585 510 m 256 1082 q 374 1182 256 1165 q 414 1103 414 1150 q 386 1033 414 1057 q 325 1008 358 1008 q 274 1031 292 1008 q 256 1082 256 1054 m 515 1082 q 633 1182 515 1165 q 674 1103 674 1150 q 646 1033 674 1057 q 585 1008 618 1008 q 533 1031 551 1008 q 515 1082 515 1054 z "},"Ì":{"ha":363,"x_min":29,"x_max":333,"o":"m 200 -24 q 170 -39 192 -32 q 137 -46 149 -46 q 125 -40 125 -46 q 151 326 151 139 q 111 915 151 660 l 147 940 l 272 876 q 246 380 265 653 q 200 -24 226 107 m 29 1107 l 46 1228 l 68 1242 q 333 1024 175 1096 q 316 991 333 1010 q 288 971 299 972 q 147 1026 206 996 q 29 1107 89 1056 z "},"Í":{"ha":363,"x_min":29,"x_max":333,"o":"m 200 -24 q 170 -39 192 -32 q 137 -46 149 -46 q 125 -40 125 -46 q 151 326 151 139 q 111 915 151 660 l 147 940 l 272 876 q 246 380 265 653 q 200 -24 226 107 m 317 1228 l 333 1107 q 215 1026 274 1056 q 75 971 157 996 q 47 991 64 972 q 29 1024 29 1010 q 294 1242 188 1096 l 317 1228 z "},"Î":{"ha":363,"x_min":-10,"x_max":372,"o":"m 200 -24 q 170 -39 192 -32 q 137 -46 149 -46 q 125 -40 125 -46 q 151 326 151 139 q 111 915 151 660 l 147 940 l 272 876 q 246 380 265 653 q 200 -24 226 107 m 231 1228 q 372 1015 282 1106 l 358 993 l 271 979 q 204 1079 231 1021 q 36 971 128 1007 q 8 991 25 972 q -10 1024 -10 1010 q 197 1228 124 1113 l 231 1228 z "},"Ï":{"ha":363,"x_min":-11,"x_max":407,"o":"m 200 -24 q 170 -39 192 -32 q 137 -46 149 -46 q 125 -40 125 -46 q 151 326 151 139 q 111 915 151 660 l 147 940 l 272 876 q 246 380 265 653 q 200 -24 226 107 m -11 1082 q 107 1182 -11 1165 q 147 1103 147 1150 q 119 1033 147 1057 q 58 1008 92 1008 q 7 1031 25 1008 q -11 1082 -11 1054 m 249 1082 q 367 1182 249 1165 q 407 1103 407 1150 q 379 1033 407 1057 q 318 1008 351 1008 q 267 1031 285 1008 q 249 1082 249 1054 z "},"Ð":{"ha":751,"x_min":-6,"x_max":742,"o":"m 251 711 q 256 563 256 649 q 253 406 256 478 q 439 453 335 414 l 454 428 l 408 319 q 246 304 324 304 q 210 100 231 143 q 174 79 192 79 q 156 83 156 79 q 175 306 174 256 q 26 328 96 310 q 7 360 17 333 q -6 403 -3 386 l 0 411 q 153 400 71 400 l 174 400 q 51 854 164 740 l 110 947 q 390 731 224 836 q 636 546 543 635 q 713 442 683 501 q 742 310 742 382 q 710 176 742 239 q 630 75 678 114 q 522 10 582 36 q 69 -15 333 -72 q 49 26 49 8 q 53 44 49 44 q 78 39 57 44 q 219 24 146 24 q 486 110 382 24 q 590 315 590 197 q 251 711 590 533 z "},"Ñ":{"ha":817,"x_min":92,"x_max":775,"o":"m 775 883 q 708 602 731 772 q 686 278 686 432 q 700 -35 686 124 q 688 -39 700 -39 q 635 -19 647 -39 q 254 650 401 324 q 175 -12 254 294 q 142 -31 164 -24 q 106 -39 119 -39 q 92 -33 92 -39 l 97 -17 q 147 413 147 165 q 134 642 147 525 q 108 822 121 760 l 94 883 l 244 940 l 281 918 q 428 517 340 711 q 606 179 515 322 q 588 494 588 313 q 635 918 588 676 l 669 940 l 775 883 m 296 1004 l 276 1015 l 251 1088 q 302 1139 268 1118 q 372 1160 336 1160 q 452 1140 407 1160 q 525 1119 497 1119 q 628 1181 586 1119 q 653 1171 642 1181 q 664 1151 664 1161 q 513 1021 608 1021 q 439 1033 479 1021 q 383 1044 399 1044 q 296 1004 346 1044 z "},"Ò":{"ha":807,"x_min":42,"x_max":765,"o":"m 622 939 l 646 904 l 606 824 q 720 653 675 764 q 765 436 765 542 q 744 251 765 331 q 679 102 722 171 q 559 -7 636 33 q 381 -47 482 -47 q 139 63 236 -47 q 42 365 42 172 q 164 719 42 560 q 346 863 228 804 q 622 939 464 922 m 415 68 q 609 163 542 72 q 676 374 676 253 q 636 617 676 496 q 524 810 596 738 q 261 678 347 785 q 175 412 175 572 q 245 160 175 251 q 415 68 315 68 m 317 1107 l 333 1228 l 356 1242 q 621 1024 463 1096 q 603 991 621 1010 q 575 971 586 972 q 435 1026 493 996 q 317 1107 376 1056 z "},"Ó":{"ha":807,"x_min":42,"x_max":765,"o":"m 622 939 l 646 904 l 606 824 q 720 653 675 764 q 765 436 765 542 q 744 251 765 331 q 679 102 722 171 q 559 -7 636 33 q 381 -47 482 -47 q 139 63 236 -47 q 42 365 42 172 q 164 719 42 560 q 346 863 228 804 q 622 939 464 922 m 415 68 q 609 163 542 72 q 676 374 676 253 q 636 617 676 496 q 524 810 596 738 q 261 678 347 785 q 175 412 175 572 q 245 160 175 251 q 415 68 315 68 m 610 1228 l 626 1107 q 508 1026 567 1056 q 368 971 450 996 q 340 991 357 972 q 322 1024 322 1010 q 588 1242 481 1096 l 610 1228 z "},"Ô":{"ha":807,"x_min":42,"x_max":765,"o":"m 622 939 l 646 904 l 606 824 q 720 653 675 764 q 765 436 765 542 q 744 251 765 331 q 679 102 722 171 q 559 -7 636 33 q 381 -47 482 -47 q 139 63 236 -47 q 42 365 42 172 q 164 719 42 560 q 346 863 228 804 q 622 939 464 922 m 415 68 q 609 163 542 72 q 676 374 676 253 q 636 617 676 496 q 524 810 596 738 q 261 678 347 785 q 175 412 175 572 q 245 160 175 251 q 415 68 315 68 m 521 1228 q 663 1015 572 1106 l 649 993 l 561 979 q 494 1079 521 1021 q 326 971 418 1007 q 298 991 315 972 q 281 1024 281 1010 q 488 1228 414 1113 l 521 1228 z "},"Õ":{"ha":807,"x_min":42,"x_max":765,"o":"m 622 939 l 646 904 l 606 824 q 720 653 675 764 q 765 436 765 542 q 744 251 765 331 q 679 102 722 171 q 559 -7 636 33 q 381 -47 482 -47 q 139 63 236 -47 q 42 365 42 172 q 164 719 42 560 q 346 863 228 804 q 622 939 464 922 m 415 68 q 609 163 542 72 q 676 374 676 253 q 636 617 676 496 q 524 810 596 738 q 261 678 347 785 q 175 412 175 572 q 245 160 175 251 q 415 68 315 68 m 301 1004 l 282 1015 l 257 1088 q 308 1139 274 1118 q 377 1160 342 1160 q 458 1140 413 1160 q 531 1119 503 1119 q 633 1181 592 1119 q 658 1171 647 1181 q 669 1151 669 1161 q 518 1021 614 1021 q 444 1033 485 1021 q 389 1044 404 1044 q 301 1004 351 1044 z "},"Ö":{"ha":807,"x_min":42,"x_max":765,"o":"m 622 939 l 646 904 l 606 824 q 720 653 675 764 q 765 436 765 542 q 744 251 765 331 q 679 102 722 171 q 559 -7 636 33 q 381 -47 482 -47 q 139 63 236 -47 q 42 365 42 172 q 164 719 42 560 q 346 863 228 804 q 622 939 464 922 m 415 68 q 609 163 542 72 q 676 374 676 253 q 636 617 676 496 q 524 810 596 738 q 261 678 347 785 q 175 412 175 572 q 245 160 175 251 q 415 68 315 68 m 283 1082 q 401 1182 283 1165 q 442 1103 442 1150 q 414 1033 442 1057 q 353 1008 386 1008 q 301 1031 319 1008 q 283 1082 283 1054 m 543 1082 q 661 1182 543 1165 q 701 1103 701 1150 q 674 1033 701 1057 q 613 1008 646 1008 q 561 1031 579 1008 q 543 1082 543 1054 z "},"×":{"ha":694,"x_min":99,"x_max":625,"o":"m 101 647 l 147 708 l 194 729 q 328 531 253 628 q 535 718 438 654 l 601 676 l 625 629 q 396 447 514 556 q 617 228 506 319 q 618 222 618 226 q 598 200 618 217 q 558 176 578 183 q 324 376 431 274 q 154 175 231 282 q 147 173 151 172 q 124 193 143 174 q 99 231 106 213 q 256 444 165 333 q 101 647 153 554 z "},"Ø":{"ha":807,"x_min":42,"x_max":765,"o":"m 192 -136 q 175 -143 189 -143 q 125 -112 144 -143 l 181 21 q 42 365 42 135 q 154 708 42 550 q 321 850 213 790 q 575 932 429 910 l 604 994 l 719 1025 l 764 989 q 643 785 700 886 q 731 622 697 719 q 765 427 765 524 q 744 251 765 331 q 679 102 722 171 q 559 -7 636 33 q 395 -47 482 -47 q 246 -18 308 -47 l 192 -136 m 415 68 q 609 163 542 72 q 676 403 676 253 q 597 704 676 554 q 303 104 485 494 q 415 68 354 68 m 519 808 q 260 678 344 783 q 175 415 175 572 q 240 165 175 257 q 519 808 386 508 z "},"Ù":{"ha":849,"x_min":111,"x_max":786,"o":"m 303 883 q 257 674 278 804 q 236 424 236 544 q 417 71 236 71 q 550 156 499 71 q 618 361 601 240 q 606 615 606 482 q 632 918 606 749 l 668 940 l 786 883 q 722 379 722 719 q 743 -43 722 126 q 732 -47 743 -47 q 678 -26 696 -47 q 635 221 649 118 q 371 -46 565 -46 q 243 -1 296 -46 q 163 122 190 43 q 111 480 111 267 q 149 918 111 693 l 185 940 l 303 883 m 272 1107 l 289 1228 l 311 1242 q 576 1024 418 1096 q 559 991 576 1010 q 531 971 542 972 q 390 1026 449 996 q 272 1107 332 1056 z "},"Ú":{"ha":849,"x_min":111,"x_max":786,"o":"m 303 883 q 257 674 278 804 q 236 424 236 544 q 417 71 236 71 q 550 156 499 71 q 618 361 601 240 q 606 615 606 482 q 632 918 606 749 l 668 940 l 786 883 q 722 379 722 719 q 743 -43 722 126 q 732 -47 743 -47 q 678 -26 696 -47 q 635 221 649 118 q 371 -46 565 -46 q 243 -1 296 -46 q 163 122 190 43 q 111 480 111 267 q 149 918 111 693 l 185 940 l 303 883 m 629 1228 l 646 1107 q 528 1026 586 1056 q 388 971 469 996 q 359 991 376 972 q 342 1024 342 1010 q 607 1242 500 1096 l 629 1228 z "},"Û":{"ha":849,"x_min":111,"x_max":786,"o":"m 303 883 q 257 674 278 804 q 236 424 236 544 q 417 71 236 71 q 550 156 499 71 q 618 361 601 240 q 606 615 606 482 q 632 918 606 749 l 668 940 l 786 883 q 722 379 722 719 q 743 -43 722 126 q 732 -47 743 -47 q 678 -26 696 -47 q 635 221 649 118 q 371 -46 565 -46 q 243 -1 296 -46 q 163 122 190 43 q 111 480 111 267 q 149 918 111 693 l 185 940 l 303 883 m 529 1228 q 671 1015 581 1106 l 657 993 l 569 979 q 503 1079 529 1021 q 335 971 426 1007 q 306 991 324 972 q 289 1024 289 1010 q 496 1228 422 1113 l 529 1228 z "},"Ü":{"ha":849,"x_min":111,"x_max":786,"o":"m 303 883 q 257 674 278 804 q 236 424 236 544 q 417 71 236 71 q 550 156 499 71 q 618 361 601 240 q 606 615 606 482 q 632 918 606 749 l 668 940 l 786 883 q 722 379 722 719 q 743 -43 722 126 q 732 -47 743 -47 q 678 -26 696 -47 q 635 221 649 118 q 371 -46 565 -46 q 243 -1 296 -46 q 163 122 190 43 q 111 480 111 267 q 149 918 111 693 l 185 940 l 303 883 m 268 1082 q 386 1182 268 1165 q 426 1103 426 1150 q 399 1033 426 1057 q 338 1008 371 1008 q 286 1031 304 1008 q 268 1082 268 1054 m 528 1082 q 646 1182 528 1165 q 686 1103 686 1150 q 658 1033 686 1057 q 597 1008 631 1008 q 546 1031 564 1008 q 528 1082 528 1054 z "},"Ý":{"ha":624,"x_min":35,"x_max":640,"o":"m 156 940 l 192 918 q 263 433 192 663 q 392 658 286 486 q 572 924 497 831 q 632 943 589 943 q 640 937 640 943 q 578 830 640 931 q 439 576 517 729 q 331 303 361 424 q 322 144 322 222 q 326 -28 322 21 l 328 -43 q 316 -47 328 -47 q 283 -41 304 -47 q 254 -26 261 -35 q 222 300 225 129 q 103 605 158 436 q 35 883 47 774 l 156 940 m 497 1228 l 514 1107 q 396 1026 454 1056 q 256 971 338 996 q 227 991 244 972 q 210 1024 210 1010 q 475 1242 368 1096 l 497 1228 z "},"Þ":{"ha":631,"x_min":97,"x_max":610,"o":"m 199 678 q 222 425 222 546 q 217 236 222 304 q 406 310 342 256 q 469 436 469 365 q 431 539 469 500 q 392 576 410 561 q 335 613 375 592 q 199 678 272 644 m 171 417 l 164 783 q 297 716 219 751 q 422 658 374 681 q 517 604 469 635 q 610 444 610 544 q 517 265 610 344 q 213 169 425 186 q 171 417 210 285 m 186 -24 q 156 -39 178 -32 q 123 -46 135 -46 q 111 -40 111 -46 q 138 326 138 139 q 97 915 138 660 l 133 940 l 258 876 q 232 380 251 653 q 186 -24 213 107 z "},"ß":{"ha":739,"x_min":15,"x_max":735,"o":"m 333 369 l 304 422 q 433 600 374 506 q 492 726 492 694 q 454 809 492 757 q 382 889 417 861 q 269 825 296 889 q 249 690 249 772 q 181 -129 249 318 q 122 -153 157 -153 q 111 -146 111 -153 q 146 428 146 125 q 144 506 146 482 q 43 525 86 513 q 25 553 33 529 q 15 592 17 576 l 19 600 q 142 589 75 589 q 126 754 140 611 q 144 808 132 783 q 186 867 156 832 q 436 989 251 939 q 610 769 529 928 q 429 478 558 615 q 499 486 464 486 q 669 416 603 486 q 735 224 735 346 q 646 24 735 101 q 444 -54 557 -54 q 229 6 331 -54 q 238 45 229 21 q 256 69 247 69 q 402 22 328 22 q 530 79 476 22 q 583 222 583 136 q 544 355 583 307 q 449 403 506 403 q 333 369 392 403 z "},"à":{"ha":653,"x_min":33,"x_max":586,"o":"m 440 636 l 553 685 l 586 665 q 540 354 540 531 q 553 146 540 279 q 576 -35 565 13 q 556 -39 576 -39 q 515 -19 535 -39 q 444 283 471 83 q 305 57 386 144 q 158 -31 224 -31 q 33 126 33 -31 q 69 300 33 217 q 167 446 106 383 q 440 636 289 569 m 233 136 q 333 208 278 136 q 431 410 388 279 q 429 485 429 429 q 431 567 429 540 q 238 422 311 499 q 164 240 164 344 q 233 136 164 136 m 275 861 l 292 982 l 314 996 q 579 778 421 850 q 562 745 579 764 q 533 725 544 726 q 393 780 451 750 q 275 861 335 810 z "},"á":{"ha":653,"x_min":33,"x_max":586,"o":"m 440 636 l 553 685 l 586 665 q 540 354 540 531 q 553 146 540 279 q 576 -35 565 13 q 556 -39 576 -39 q 515 -19 535 -39 q 444 283 471 83 q 305 57 386 144 q 158 -31 224 -31 q 33 126 33 -31 q 69 300 33 217 q 167 446 106 383 q 440 636 289 569 m 233 136 q 333 208 278 136 q 431 410 388 279 q 429 485 429 429 q 431 567 429 540 q 238 422 311 499 q 164 240 164 344 q 233 136 164 136 m 517 982 l 533 861 q 415 780 474 810 q 275 725 357 750 q 247 745 264 726 q 229 778 229 764 q 494 996 388 850 l 517 982 z "},"â":{"ha":653,"x_min":33,"x_max":586,"o":"m 440 636 l 553 685 l 586 665 q 540 354 540 531 q 553 146 540 279 q 576 -35 565 13 q 556 -39 576 -39 q 515 -19 535 -39 q 444 283 471 83 q 305 57 386 144 q 158 -31 224 -31 q 33 126 33 -31 q 69 300 33 217 q 167 446 106 383 q 440 636 289 569 m 233 136 q 333 208 278 136 q 431 410 388 279 q 429 485 429 429 q 431 567 429 540 q 238 422 311 499 q 164 240 164 344 q 233 136 164 136 m 436 982 q 578 769 488 860 l 564 747 l 476 733 q 410 833 436 775 q 242 725 333 761 q 213 745 231 726 q 196 778 196 764 q 403 982 329 867 l 436 982 z "},"ã":{"ha":653,"x_min":33,"x_max":599,"o":"m 440 636 l 553 685 l 586 665 q 540 354 540 531 q 553 146 540 279 q 576 -35 565 13 q 556 -39 576 -39 q 515 -19 535 -39 q 444 283 471 83 q 305 57 386 144 q 158 -31 224 -31 q 33 126 33 -31 q 69 300 33 217 q 167 446 106 383 q 440 636 289 569 m 233 136 q 333 208 278 136 q 431 410 388 279 q 429 485 429 429 q 431 567 429 540 q 238 422 311 499 q 164 240 164 344 q 233 136 164 136 m 231 758 l 211 769 l 186 842 q 237 893 203 872 q 306 914 271 914 q 387 894 342 914 q 460 874 432 874 q 563 935 521 874 q 588 925 576 935 q 599 906 599 915 q 447 775 543 775 q 374 787 414 775 q 318 799 333 799 q 231 758 281 799 z "},"ä":{"ha":653,"x_min":33,"x_max":596,"o":"m 440 636 l 553 685 l 586 665 q 540 354 540 531 q 553 146 540 279 q 576 -35 565 13 q 556 -39 576 -39 q 515 -19 535 -39 q 444 283 471 83 q 305 57 386 144 q 158 -31 224 -31 q 33 126 33 -31 q 69 300 33 217 q 167 446 106 383 q 440 636 289 569 m 233 136 q 333 208 278 136 q 431 410 388 279 q 429 485 429 429 q 431 567 429 540 q 238 422 311 499 q 164 240 164 344 q 233 136 164 136 m 178 836 q 296 936 178 919 q 336 858 336 904 q 308 787 336 811 q 247 763 281 763 q 196 785 214 763 q 178 836 178 808 m 438 836 q 556 936 438 919 q 596 858 596 904 q 568 787 596 811 q 507 763 540 763 q 456 785 474 763 q 438 836 438 808 z "},"å":{"ha":653,"x_min":33,"x_max":586,"o":"m 440 636 l 553 685 l 586 665 q 540 354 540 531 q 553 146 540 279 q 576 -35 565 13 q 556 -39 576 -39 q 515 -19 535 -39 q 444 283 471 83 q 305 57 386 144 q 158 -31 224 -31 q 33 126 33 -31 q 69 300 33 217 q 167 446 106 383 q 440 636 289 569 m 233 136 q 333 208 278 136 q 431 410 388 279 q 429 485 429 429 q 431 567 429 540 q 238 422 311 499 q 164 240 164 344 q 233 136 164 136 m 297 840 q 297 869 297 840 q 340 939 297 899 q 441 979 383 979 q 532 951 499 979 q 565 863 565 922 q 522 764 565 804 q 420 724 478 724 q 330 752 363 724 q 297 840 297 781 m 439 908 q 397 890 414 908 q 381 844 381 872 q 422 794 381 794 q 465 813 447 794 q 482 858 482 831 q 439 908 482 908 z "},"æ":{"ha":940,"x_min":33,"x_max":907,"o":"m 440 636 l 553 685 l 586 665 q 535 528 553 585 q 793 663 633 626 q 878 511 878 633 q 817 396 863 447 q 713 314 771 344 q 525 243 606 258 q 561 140 531 174 q 635 107 592 107 q 856 313 757 107 q 870 321 858 321 q 907 301 882 321 q 760 63 847 157 q 588 -31 674 -31 q 453 32 501 -31 q 406 200 406 94 l 406 201 q 281 33 349 96 q 153 -31 213 -31 q 63 12 93 -31 q 33 135 33 54 q 69 300 33 217 q 167 446 106 383 q 440 636 289 569 m 233 136 q 341 217 285 136 q 433 403 397 299 q 481 593 469 507 q 190 353 250 475 q 164 239 164 299 q 233 136 164 136 m 715 553 q 594 485 657 553 q 525 299 532 418 q 702 388 640 329 q 764 504 764 447 q 751 539 764 525 q 715 553 739 553 z "},"ç":{"ha":567,"x_min":57,"x_max":526,"o":"m 526 301 q 413 69 493 164 q 244 -31 332 -26 l 215 -87 q 274 -79 239 -79 q 342 -103 310 -79 q 374 -177 374 -128 q 326 -269 374 -226 q 211 -312 279 -312 q 96 -286 143 -312 l 89 -265 l 124 -199 q 215 -254 154 -254 q 265 -234 246 -254 q 285 -190 285 -214 q 270 -152 285 -167 q 227 -137 256 -137 q 174 -150 199 -137 l 154 -124 l 199 -26 q 94 48 131 -12 q 57 183 57 108 q 69 311 57 257 q 111 425 81 365 q 189 533 142 485 q 315 624 236 582 q 494 692 393 667 l 525 665 l 481 542 q 392 560 435 560 q 235 472 293 560 q 176 271 176 385 q 208 150 176 193 q 286 107 240 107 q 474 313 390 107 q 487 321 475 321 q 526 301 499 321 z "},"è":{"ha":592,"x_min":57,"x_max":558,"o":"m 529 511 q 468 396 514 447 q 364 314 422 344 q 176 243 257 258 q 213 140 182 174 q 286 107 243 107 q 507 313 408 107 q 521 321 508 321 q 558 301 533 321 q 412 63 499 157 q 239 -31 325 -31 q 105 32 153 -31 q 57 200 57 94 q 136 469 57 346 q 258 587 179 536 q 444 663 336 638 q 529 511 529 633 m 367 553 q 246 485 308 553 q 176 299 183 418 q 353 388 292 329 q 415 504 415 447 q 403 539 415 525 q 367 553 390 553 m 225 861 l 242 982 l 264 996 q 529 778 371 850 q 512 745 529 764 q 483 725 494 726 q 343 780 401 750 q 225 861 285 810 z "},"é":{"ha":592,"x_min":57,"x_max":558,"o":"m 529 511 q 468 396 514 447 q 364 314 422 344 q 176 243 257 258 q 213 140 182 174 q 286 107 243 107 q 507 313 408 107 q 521 321 508 321 q 558 301 533 321 q 412 63 499 157 q 239 -31 325 -31 q 105 32 153 -31 q 57 200 57 94 q 136 469 57 346 q 258 587 179 536 q 444 663 336 638 q 529 511 529 633 m 367 553 q 246 485 308 553 q 176 299 183 418 q 353 388 292 329 q 415 504 415 447 q 403 539 415 525 q 367 553 390 553 m 482 982 l 499 861 q 381 780 439 810 q 240 725 322 750 q 212 745 229 726 q 194 778 194 764 q 460 996 353 850 l 482 982 z "},"ê":{"ha":592,"x_min":57,"x_max":561,"o":"m 529 511 q 468 396 514 447 q 364 314 422 344 q 176 243 257 258 q 213 140 182 174 q 286 107 243 107 q 507 313 408 107 q 521 321 508 321 q 558 301 533 321 q 412 63 499 157 q 239 -31 325 -31 q 105 32 153 -31 q 57 200 57 94 q 136 469 57 346 q 258 587 179 536 q 444 663 336 638 q 529 511 529 633 m 367 553 q 246 485 308 553 q 176 299 183 418 q 353 388 292 329 q 415 504 415 447 q 403 539 415 525 q 367 553 390 553 m 419 982 q 561 769 471 860 l 547 747 l 460 733 q 393 833 419 775 q 225 725 317 761 q 197 745 214 726 q 179 778 179 764 q 386 982 313 867 l 419 982 z "},"ë":{"ha":592,"x_min":57,"x_max":579,"o":"m 529 511 q 468 396 514 447 q 364 314 422 344 q 176 243 257 258 q 213 140 182 174 q 286 107 243 107 q 507 313 408 107 q 521 321 508 321 q 558 301 533 321 q 412 63 499 157 q 239 -31 325 -31 q 105 32 153 -31 q 57 200 57 94 q 136 469 57 346 q 258 587 179 536 q 444 663 336 638 q 529 511 529 633 m 367 553 q 246 485 308 553 q 176 299 183 418 q 353 388 292 329 q 415 504 415 447 q 403 539 415 525 q 367 553 390 553 m 161 836 q 279 936 161 919 q 319 858 319 904 q 292 787 319 811 q 231 763 264 763 q 179 785 197 763 q 161 836 161 808 m 421 836 q 539 936 421 919 q 579 858 579 904 q 551 787 579 811 q 490 763 524 763 q 439 785 457 763 q 421 836 421 808 z "},"ì":{"ha":321,"x_min":38,"x_max":342,"o":"m 243 619 q 246 528 246 558 q 161 1 246 294 q 120 -18 142 -18 q 99 -14 99 -18 l 99 -12 q 133 354 133 196 q 97 653 133 513 l 131 674 l 243 619 m 38 861 l 54 982 l 76 996 q 342 778 183 850 q 324 745 342 764 q 296 725 307 726 q 156 780 214 750 q 38 861 97 810 z "},"í":{"ha":321,"x_min":8,"x_max":313,"o":"m 243 619 q 246 528 246 558 q 161 1 246 294 q 120 -18 142 -18 q 99 -14 99 -18 l 99 -12 q 133 354 133 196 q 97 653 133 513 l 131 674 l 243 619 m 296 982 l 313 861 q 194 780 253 810 q 54 725 136 750 q 26 745 43 726 q 8 778 8 764 q 274 996 167 850 l 296 982 z "},"î":{"ha":321,"x_min":-4,"x_max":378,"o":"m 243 619 q 246 528 246 558 q 161 1 246 294 q 120 -18 142 -18 q 99 -14 99 -18 l 99 -12 q 133 354 133 196 q 97 653 133 513 l 131 674 l 243 619 m 236 982 q 378 769 288 860 l 364 747 l 276 733 q 210 833 236 775 q 42 725 133 761 q 13 745 31 726 q -4 778 -4 764 q 203 982 129 867 l 236 982 z "},"ï":{"ha":321,"x_min":-15,"x_max":403,"o":"m 243 619 q 246 528 246 558 q 161 1 246 294 q 120 -18 142 -18 q 99 -14 99 -18 l 99 -12 q 133 354 133 196 q 97 653 133 513 l 131 674 l 243 619 m -15 836 q 103 936 -15 919 q 143 858 143 904 q 115 787 143 811 q 54 763 88 763 q 3 785 21 763 q -15 836 -15 808 m 244 836 q 363 936 244 919 q 403 858 403 904 q 375 787 403 811 q 314 763 347 763 q 263 785 281 763 q 244 836 244 808 z "},"ð":{"ha":663,"x_min":58,"x_max":636,"o":"m 636 803 q 515 742 574 768 q 603 343 603 575 q 525 63 603 171 q 303 -46 447 -46 q 128 28 199 -46 q 58 232 58 101 q 476 606 58 528 q 438 714 461 668 q 275 675 386 697 q 255 694 264 679 q 246 725 246 710 q 396 779 306 743 q 233 850 333 850 q 129 835 190 850 l 103 953 l 136 978 q 468 814 349 968 q 569 882 533 850 q 611 918 606 914 l 636 904 l 636 803 m 318 81 q 466 153 414 81 q 518 334 518 225 q 456 519 518 443 q 260 429 336 499 q 185 270 185 360 q 220 131 185 181 q 318 81 256 81 z "},"ñ":{"ha":692,"x_min":88,"x_max":618,"o":"m 100 -12 q 133 306 133 163 q 123 508 133 449 q 101 607 113 567 q 88 653 89 647 l 121 674 l 233 619 q 244 485 244 539 q 243 406 244 431 q 372 588 301 519 q 503 656 443 656 q 618 499 618 656 q 594 206 618 376 q 565 -11 571 36 q 504 -31 549 -31 q 494 -26 494 -31 q 515 271 515 151 q 433 489 515 489 q 305 388 371 489 q 197 101 239 286 l 194 101 q 163 1 175 35 q 122 -18 143 -18 q 100 -12 100 -18 m 236 758 l 217 769 l 192 842 q 242 893 208 872 q 312 914 276 914 q 392 894 347 914 q 465 874 438 874 q 568 935 526 874 q 593 925 582 935 q 604 906 604 915 q 453 775 549 775 q 379 787 419 775 q 324 799 339 799 q 236 758 286 799 z "},"ò":{"ha":663,"x_min":58,"x_max":594,"o":"m 583 635 l 517 558 q 594 321 594 464 q 465 11 594 119 q 298 -46 397 -46 q 128 33 199 -46 q 58 251 58 113 q 167 517 58 397 q 327 621 224 579 q 568 674 431 663 l 583 635 m 318 81 q 459 153 403 81 q 515 303 515 225 q 439 563 515 471 q 258 467 332 544 q 185 290 185 389 q 220 136 185 192 q 318 81 256 81 m 239 861 l 256 982 l 278 996 q 543 778 385 850 q 526 745 543 764 q 497 725 508 726 q 357 780 415 750 q 239 861 299 810 z "},"ó":{"ha":663,"x_min":58,"x_max":594,"o":"m 583 635 l 517 558 q 594 321 594 464 q 465 11 594 119 q 298 -46 397 -46 q 128 33 199 -46 q 58 251 58 113 q 167 517 58 397 q 327 621 224 579 q 568 674 431 663 l 583 635 m 318 81 q 459 153 403 81 q 515 303 515 225 q 439 563 515 471 q 258 467 332 544 q 185 290 185 389 q 220 136 185 192 q 318 81 256 81 m 525 982 l 542 861 q 424 780 482 810 q 283 725 365 750 q 255 745 272 726 q 238 778 238 764 q 503 996 396 850 l 525 982 z "},"ô":{"ha":663,"x_min":58,"x_max":597,"o":"m 583 635 l 517 558 q 594 321 594 464 q 465 11 594 119 q 298 -46 397 -46 q 128 33 199 -46 q 58 251 58 113 q 167 517 58 397 q 327 621 224 579 q 568 674 431 663 l 583 635 m 318 81 q 459 153 403 81 q 515 303 515 225 q 439 563 515 471 q 258 467 332 544 q 185 290 185 389 q 220 136 185 192 q 318 81 256 81 m 456 982 q 597 769 507 860 l 583 747 l 496 733 q 429 833 456 775 q 261 725 353 761 q 233 745 250 726 q 215 778 215 764 q 422 982 349 867 l 456 982 z "},"õ":{"ha":663,"x_min":58,"x_max":608,"o":"m 583 635 l 517 558 q 594 321 594 464 q 465 11 594 119 q 298 -46 397 -46 q 128 33 199 -46 q 58 251 58 113 q 167 517 58 397 q 327 621 224 579 q 568 674 431 663 l 583 635 m 318 81 q 459 153 403 81 q 515 303 515 225 q 439 563 515 471 q 258 467 332 544 q 185 290 185 389 q 220 136 185 192 q 318 81 256 81 m 240 758 l 221 769 l 196 842 q 247 893 213 872 q 316 914 281 914 q 397 894 351 914 q 469 874 442 874 q 572 935 531 874 q 597 925 586 935 q 608 906 608 915 q 457 775 553 775 q 383 787 424 775 q 328 799 343 799 q 240 758 290 799 z "},"ö":{"ha":663,"x_min":58,"x_max":594,"o":"m 583 635 l 517 558 q 594 321 594 464 q 465 11 594 119 q 298 -46 397 -46 q 128 33 199 -46 q 58 251 58 113 q 167 517 58 397 q 327 621 224 579 q 568 674 431 663 l 583 635 m 318 81 q 459 153 403 81 q 515 303 515 225 q 439 563 515 471 q 258 467 332 544 q 185 290 185 389 q 220 136 185 192 q 318 81 256 81 m 174 836 q 292 936 174 919 q 332 858 332 904 q 304 787 332 811 q 243 763 276 763 q 192 785 210 763 q 174 836 174 808 m 433 836 q 551 936 433 919 q 592 858 592 904 q 564 787 592 811 q 503 763 536 763 q 451 785 469 763 q 433 836 433 808 z "},"÷":{"ha":694,"x_min":64,"x_max":636,"o":"m 611 533 l 636 457 l 624 404 q 464 415 532 415 q 75 368 294 415 q 64 403 64 368 q 67 449 64 439 q 551 535 365 535 q 611 533 592 535 m 303 119 q 283 119 303 119 q 240 146 263 119 q 218 213 218 172 q 256 285 218 254 q 361 326 293 317 q 410 233 410 289 q 376 148 410 176 q 303 119 343 119 m 361 792 q 381 792 361 792 q 424 765 401 792 q 446 698 446 739 q 408 626 446 657 q 303 585 371 594 q 254 678 254 622 q 288 763 254 735 q 361 792 321 792 z "},"ø":{"ha":663,"x_min":58,"x_max":707,"o":"m 135 -282 q 118 -289 131 -289 q 68 -258 88 -289 l 172 -7 q 58 251 58 69 q 144 492 58 382 q 272 594 190 550 q 461 660 353 639 l 547 849 l 663 879 l 707 843 q 583 635 642 740 l 582 633 l 531 540 q 594 321 594 454 q 465 11 594 119 q 303 -46 397 -46 q 247 -39 278 -46 l 135 -282 m 318 81 q 459 153 403 81 q 515 314 515 225 q 492 467 515 403 q 303 81 417 322 l 318 81 m 415 557 q 251 458 317 533 q 185 281 185 383 q 228 124 185 179 q 415 557 319 339 z "},"ù":{"ha":710,"x_min":99,"x_max":644,"o":"m 221 650 q 201 354 201 465 q 283 136 201 136 q 390 206 335 136 q 488 407 446 276 q 486 497 486 429 q 499 636 486 565 l 610 685 l 644 665 q 599 354 599 531 q 610 144 599 278 q 635 -35 622 11 q 613 -39 635 -39 q 572 -19 592 -39 q 501 282 531 81 q 363 57 444 144 q 210 -31 282 -31 q 99 126 99 -31 q 110 328 99 233 q 134 507 122 422 q 151 636 146 592 q 179 649 158 643 q 210 656 200 656 q 221 650 221 656 m 242 861 l 258 982 l 281 996 q 546 778 388 850 q 528 745 546 764 q 500 725 511 726 q 360 780 418 750 q 242 861 301 810 z "},"ú":{"ha":710,"x_min":99,"x_max":644,"o":"m 221 650 q 201 354 201 465 q 283 136 201 136 q 390 206 335 136 q 488 407 446 276 q 486 497 486 429 q 499 636 486 565 l 610 685 l 644 665 q 599 354 599 531 q 610 144 599 278 q 635 -35 622 11 q 613 -39 635 -39 q 572 -19 592 -39 q 501 282 531 81 q 363 57 444 144 q 210 -31 282 -31 q 99 126 99 -31 q 110 328 99 233 q 134 507 122 422 q 151 636 146 592 q 179 649 158 643 q 210 656 200 656 q 221 650 221 656 m 490 982 l 507 861 q 389 780 447 810 q 249 725 331 750 q 220 745 238 726 q 203 778 203 764 q 468 996 361 850 l 490 982 z "},"û":{"ha":710,"x_min":99,"x_max":644,"o":"m 221 650 q 201 354 201 465 q 283 136 201 136 q 390 206 335 136 q 488 407 446 276 q 486 497 486 429 q 499 636 486 565 l 610 685 l 644 665 q 599 354 599 531 q 610 144 599 278 q 635 -35 622 11 q 613 -39 635 -39 q 572 -19 592 -39 q 501 282 531 81 q 363 57 444 144 q 210 -31 282 -31 q 99 126 99 -31 q 110 328 99 233 q 134 507 122 422 q 151 636 146 592 q 179 649 158 643 q 210 656 200 656 q 221 650 221 656 m 461 982 q 603 769 513 860 l 589 747 l 501 733 q 435 833 461 775 q 267 725 358 761 q 238 745 256 726 q 221 778 221 764 q 428 982 354 867 l 461 982 z "},"ü":{"ha":710,"x_min":99,"x_max":644,"o":"m 221 650 q 201 354 201 465 q 283 136 201 136 q 390 206 335 136 q 488 407 446 276 q 486 497 486 429 q 499 636 486 565 l 610 685 l 644 665 q 599 354 599 531 q 610 144 599 278 q 635 -35 622 11 q 613 -39 635 -39 q 572 -19 592 -39 q 501 282 531 81 q 363 57 444 144 q 210 -31 282 -31 q 99 126 99 -31 q 110 328 99 233 q 134 507 122 422 q 151 636 146 592 q 179 649 158 643 q 210 656 200 656 q 221 650 221 656 m 207 836 q 325 936 207 919 q 365 858 365 904 q 338 787 365 811 q 276 763 310 763 q 225 785 243 763 q 207 836 207 808 m 467 836 q 585 936 467 919 q 625 858 625 904 q 597 787 625 811 q 536 763 569 763 q 485 785 503 763 q 467 836 467 808 z "},"ý":{"ha":564,"x_min":11,"x_max":593,"o":"m 593 658 l 592 650 q 354 7 451 419 q 46 -394 276 -326 l 11 -369 l 44 -235 q 92 -239 72 -239 q 285 -25 222 -239 q 236 -44 254 -44 q 207 -39 218 -44 q 114 244 154 71 q 74 556 74 417 q 81 650 74 614 l 115 674 l 226 618 q 201 384 201 514 q 238 58 201 254 q 363 366 278 199 q 529 644 447 533 q 589 664 556 664 q 593 658 593 664 m 517 982 l 533 861 q 415 780 474 810 q 275 725 357 750 q 247 745 264 726 q 229 778 229 764 q 494 996 388 850 l 517 982 z "},"þ":{"ha":696,"x_min":83,"x_max":653,"o":"m 83 -375 q 142 349 142 -68 q 94 967 142 765 l 129 989 l 240 936 q 256 664 256 814 q 247 381 256 514 q 383 599 304 515 q 528 682 463 682 q 653 525 653 682 q 554 226 653 379 q 414 81 504 149 q 207 -28 324 13 q 153 -358 183 -200 q 94 -382 129 -382 q 83 -375 83 -382 m 453 515 q 333 415 399 515 q 225 138 267 315 l 217 50 q 392 153 319 86 q 522 411 522 275 q 453 515 522 515 z "},"ÿ":{"ha":564,"x_min":11,"x_max":593,"o":"m 593 658 l 592 650 q 354 7 451 419 q 46 -394 276 -326 l 11 -369 l 44 -235 q 92 -239 72 -239 q 285 -25 222 -239 q 236 -44 254 -44 q 207 -39 218 -44 q 114 244 154 71 q 74 556 74 417 q 81 650 74 614 l 115 674 l 226 618 q 201 384 201 514 q 238 58 201 254 q 363 366 278 199 q 529 644 447 533 q 589 664 556 664 q 593 658 593 664 m 164 836 q 282 936 164 919 q 322 858 322 904 q 294 787 322 811 q 233 763 267 763 q 182 785 200 763 q 164 836 164 808 m 424 836 q 542 936 424 919 q 582 858 582 904 q 554 787 582 811 q 493 763 526 763 q 442 785 460 763 q 424 836 424 808 z "},"ı":{"ha":321,"x_min":97,"x_max":246,"o":"m 243 619 q 246 528 246 558 q 161 1 246 294 q 120 -18 142 -18 q 99 -14 99 -18 l 99 -12 q 133 354 133 196 q 97 653 133 513 l 131 674 l 243 619 z "},"Ł":{"ha":586,"x_min":0,"x_max":607,"o":"m 188 -7 l 186 -17 q 156 -32 178 -25 q 123 -39 135 -39 q 111 -33 111 -39 q 143 326 140 143 l 143 406 q 29 381 115 397 q 9 400 18 385 q 0 431 0 415 q 143 482 89 458 q 114 915 140 722 l 150 940 l 274 876 q 253 536 267 710 q 328 592 299 565 q 365 624 358 618 l 390 610 l 390 508 q 244 438 311 464 q 201 65 222 190 q 239 65 221 65 q 583 136 447 65 l 607 100 l 561 -19 q 393 -26 488 -26 q 188 -7 299 -26 z "},"ł":{"ha":336,"x_min":-14,"x_max":376,"o":"m 249 543 q 351 624 303 575 l 376 610 l 376 508 q 240 440 310 469 q 158 -19 214 186 q 129 -36 150 -29 q 96 -43 108 -43 q 83 -36 83 -43 q 146 410 135 183 q 15 381 110 400 q -5 400 4 385 q -14 431 -14 415 q 149 490 85 461 l 149 526 q 94 967 149 783 l 129 989 l 240 936 q 254 735 254 838 q 249 543 254 633 z "},"Œ":{"ha":1217,"x_min":42,"x_max":1168,"o":"m 860 -46 q 639 174 693 -46 q 339 -46 554 -46 q 126 61 211 -46 q 42 356 42 168 q 157 717 42 554 q 312 847 214 797 q 533 897 410 897 q 701 888 578 897 l 779 940 l 815 918 q 803 879 808 903 l 846 879 q 1144 940 993 879 l 1168 904 l 1122 785 q 942 772 1025 772 q 778 782 858 772 q 731 485 744 640 l 763 485 q 1036 533 913 485 l 1049 510 l 1007 414 q 844 399 926 399 q 725 401 761 399 q 724 347 724 383 q 763 123 724 211 q 883 35 803 35 q 1011 94 963 35 q 1097 285 1060 153 q 1107 296 1100 296 q 1150 276 1126 296 q 860 -46 1086 -46 m 611 444 q 620 626 611 500 q 636 803 629 753 q 511 813 565 813 q 253 695 343 813 q 163 419 163 578 q 221 176 163 260 q 371 93 279 93 q 544 197 481 93 q 611 432 607 300 l 611 444 z "},"œ":{"ha":1010,"x_min":58,"x_max":976,"o":"m 583 635 l 517 558 q 594 321 594 464 q 465 11 594 119 q 298 -46 397 -46 q 128 33 199 -46 q 58 251 58 113 q 167 517 58 397 q 327 621 224 579 q 568 674 431 663 l 583 635 m 318 81 q 459 153 403 81 q 515 303 515 225 q 439 563 515 471 q 258 467 332 544 q 185 290 185 389 q 220 136 185 192 q 318 81 256 81 m 947 511 q 886 396 932 447 q 782 314 840 344 q 594 243 675 258 q 631 140 600 174 q 704 107 661 107 q 925 313 826 107 q 940 321 928 321 q 976 301 951 321 q 830 63 917 157 q 657 -31 743 -31 q 523 32 571 -31 q 475 200 475 94 q 556 469 475 346 q 676 587 597 536 q 863 663 754 638 q 947 511 947 633 m 785 553 q 664 485 726 553 q 594 299 601 418 q 772 388 710 329 q 833 504 833 447 q 821 539 833 525 q 785 553 808 553 z "},"Š":{"ha":608,"x_min":0,"x_max":590,"o":"m 567 886 l 521 767 q 372 803 453 803 q 242 774 292 803 q 193 682 193 744 q 321 508 193 606 q 426 426 374 468 q 517 328 479 383 q 554 225 554 274 q 538 137 554 176 q 485 56 522 97 q 368 -12 447 14 q 190 -39 289 -39 q 15 -15 92 -39 q 0 26 0 8 q 2 44 0 44 q 22 39 4 44 q 136 24 79 24 q 326 71 253 24 q 399 192 399 118 q 279 371 399 275 q 179 451 229 411 q 60 639 60 547 q 108 753 60 697 q 543 922 215 876 l 567 886 m 350 985 q 208 1197 299 1107 l 222 1219 l 310 1233 q 376 1133 351 1188 q 544 1242 450 1201 q 573 1222 556 1240 q 590 1189 590 1203 q 383 985 457 1100 l 350 985 z "},"š":{"ha":511,"x_min":21,"x_max":511,"o":"m 479 656 l 435 532 q 308 574 371 574 q 206 494 206 574 q 292 368 206 440 q 365 304 329 338 q 451 144 451 225 q 404 25 451 82 q 319 -24 378 -6 q 183 -43 260 -43 q 46 -24 107 -43 q 30 2 39 -18 q 21 31 21 22 q 24 39 21 39 q 44 35 28 39 q 150 24 86 24 q 258 51 214 24 q 301 122 301 79 q 266 207 301 165 q 188 282 231 249 q 110 365 146 315 q 75 464 75 414 q 105 544 75 508 q 174 603 135 579 q 449 682 268 658 l 479 656 m 271 739 q 129 951 219 861 l 143 974 l 231 988 q 297 888 272 942 q 465 996 371 956 q 494 976 476 994 q 511 943 511 957 q 304 739 378 854 l 271 739 z "},"Ÿ":{"ha":624,"x_min":35,"x_max":640,"o":"m 156 940 l 192 918 q 263 433 192 663 q 392 658 286 486 q 572 924 497 831 q 632 943 589 943 q 640 937 640 943 q 578 830 640 931 q 439 576 517 729 q 331 303 361 424 q 322 144 322 222 q 326 -28 322 21 l 328 -43 q 316 -47 328 -47 q 283 -41 304 -47 q 254 -26 261 -35 q 222 300 225 129 q 103 605 158 436 q 35 883 47 774 l 156 940 m 163 1082 q 281 1182 163 1165 q 321 1103 321 1150 q 293 1033 321 1057 q 232 1008 265 1008 q 181 1031 199 1008 q 163 1082 163 1054 m 422 1082 q 540 1182 422 1165 q 581 1103 581 1150 q 553 1033 581 1057 q 492 1008 525 1008 q 440 1031 458 1008 q 422 1082 422 1054 z "},"Ž":{"ha":667,"x_min":0,"x_max":640,"o":"m 603 928 l 639 903 q 182 108 579 550 q 624 40 514 76 q 640 -11 640 19 q 638 -42 640 -42 q 335 -11 497 -11 q 26 -33 172 -11 l 0 8 l 10 18 q 468 779 388 454 q 263 754 354 754 q 100 764 171 754 l 43 879 l 64 917 q 392 869 169 869 q 496 874 446 869 l 603 928 m 346 985 q 204 1197 294 1107 l 218 1219 l 306 1233 q 372 1133 347 1188 q 540 1242 446 1201 q 569 1222 551 1240 q 586 1189 586 1203 q 379 985 453 1100 l 346 985 z "},"ž":{"ha":565,"x_min":33,"x_max":549,"o":"m 535 46 q 549 2 549 28 q 546 -24 549 -24 q 302 3 432 3 q 56 -17 172 3 l 33 18 q 109 106 63 51 q 249 294 156 161 q 381 518 343 428 q 251 499 335 499 q 106 515 167 499 l 58 638 l 82 674 q 339 617 208 617 q 468 639 425 617 l 483 646 l 531 549 q 176 103 481 383 q 535 46 435 79 m 296 739 q 154 951 244 861 l 168 974 l 256 988 q 322 888 297 942 q 490 996 396 956 q 519 976 501 994 q 536 943 536 957 q 329 739 403 854 l 296 739 z "},"ƒ":{"ha":694,"x_min":-46,"x_max":663,"o":"m 242 275 l 240 365 q 118 382 179 369 q 94 410 106 386 q 81 449 82 435 l 88 457 q 236 446 150 449 q 231 635 231 576 q 237 722 231 693 q 267 784 243 750 q 333 843 292 818 q 640 922 432 901 l 663 886 l 618 767 q 485 817 554 817 q 390 783 415 817 q 365 668 365 750 q 363 447 365 522 q 571 494 474 456 l 583 471 l 542 375 q 369 360 461 360 l 360 360 q 164 -290 336 -115 q -11 -394 92 -364 l -46 -369 l -14 -235 q 35 -239 13 -239 q 142 -187 99 -239 q 206 -50 186 -136 q 242 275 242 101 z "},"ˆ":{"ha":521,"x_min":69,"x_max":451,"o":"m 310 982 q 451 769 361 860 l 438 747 l 350 733 q 283 833 310 775 q 115 725 207 761 q 87 745 104 726 q 69 778 69 764 q 276 982 203 867 l 310 982 z "},"ˇ":{"ha":521,"x_min":69,"x_max":451,"o":"m 211 739 q 69 951 160 861 l 83 974 l 171 988 q 238 888 213 942 q 406 996 311 956 q 434 976 417 994 q 451 943 451 957 q 244 739 318 854 l 211 739 z "},"˘":{"ha":463,"x_min":71,"x_max":419,"o":"m 328 922 l 400 960 l 419 946 q 363 816 419 871 q 230 761 306 761 q 113 795 154 761 q 71 897 71 829 l 142 935 l 163 921 q 203 849 163 868 q 243 840 222 840 q 286 853 264 840 q 328 922 328 875 z "},"˙":{"ha":331,"x_min":69,"x_max":261,"o":"m 154 743 q 134 743 154 743 q 92 771 114 743 q 69 840 69 799 q 107 912 69 881 q 213 953 144 943 q 261 858 261 914 q 228 773 261 803 q 154 743 194 743 z "},"˚":{"ha":407,"x_min":69,"x_max":338,"o":"m 69 840 q 69 869 69 840 q 113 939 69 899 q 213 979 156 979 q 304 951 271 979 q 338 863 338 922 q 294 764 338 804 q 192 724 250 724 q 102 752 135 724 q 69 840 69 781 m 211 908 q 169 890 186 908 q 153 844 153 872 q 194 794 153 794 q 237 813 219 794 q 254 858 254 831 q 211 908 254 908 z "},"˛":{"ha":592,"x_min":133,"x_max":433,"o":"m 242 0 l 299 0 q 219 -151 219 -67 q 238 -209 219 -187 q 289 -231 256 -231 q 397 -139 346 -231 q 433 -158 422 -139 q 357 -269 406 -225 q 253 -312 308 -312 q 166 -276 199 -312 q 133 -189 133 -240 q 165 -84 133 -137 q 242 0 196 -31 z "},"˜":{"ha":593,"x_min":86,"x_max":499,"o":"m 131 758 l 111 769 l 86 842 q 137 893 103 872 q 206 914 171 914 q 287 894 242 914 q 360 874 332 874 q 463 935 421 874 q 488 925 476 935 q 499 906 499 915 q 347 775 443 775 q 274 787 314 775 q 218 799 233 799 q 131 758 181 799 z "},"˝":{"ha":606,"x_min":69,"x_max":536,"o":"m 282 976 l 317 872 q 222 781 265 814 q 114 718 178 747 q 88 735 104 718 q 69 767 71 753 q 261 988 200 871 l 282 976 m 501 976 l 536 872 q 441 781 485 814 q 333 718 397 747 q 307 735 324 718 q 289 767 290 753 q 481 988 419 871 l 501 976 z "},"π":{"ha":789,"x_min":56,"x_max":733,"o":"m 107 538 q 74 570 90 542 q 56 611 57 599 q 64 624 56 624 l 65 624 q 349 611 208 611 q 718 668 553 611 l 733 640 l 685 529 q 626 522 650 524 q 542 1 625 292 q 501 -18 522 -18 q 479 -14 479 -18 q 514 315 514 194 q 504 513 514 435 q 432 511 486 511 q 307 515 378 511 q 222 1 306 289 q 181 -18 203 -18 q 160 -14 160 -18 q 194 324 194 194 q 183 526 194 453 q 107 538 154 529 z "},"–":{"ha":817,"x_min":0,"x_max":817,"o":"m 803 322 q 460 297 631 297 q 186 306 289 297 q 0 338 0 319 q 25 388 0 369 q 774 454 511 388 l 817 358 l 803 322 z "},"—":{"ha":1057,"x_min":0,"x_max":1057,"o":"m 1039 322 q 595 297 817 297 q 242 306 374 297 q 0 338 0 319 q 25 388 0 369 q 1001 454 657 388 l 1057 358 l 1039 322 z "},"‘":{"ha":274,"x_min":54,"x_max":288,"o":"m 142 560 q 122 560 142 560 q 78 589 101 560 q 54 668 54 618 q 74 765 54 718 q 123 840 94 811 q 183 892 151 869 q 265 931 242 931 q 279 915 271 931 q 288 888 288 899 q 182 747 189 842 l 242 661 q 212 587 242 614 q 142 560 182 560 z "},"’":{"ha":301,"x_min":14,"x_max":247,"o":"m 160 931 q 180 931 160 931 q 224 901 200 931 q 247 822 247 872 q 227 726 247 772 q 178 650 207 679 q 118 600 150 621 q 36 560 60 560 q 22 576 31 560 q 14 603 14 592 q 119 743 113 649 l 60 829 q 90 903 60 876 q 160 931 119 931 z "},"‚":{"ha":301,"x_min":14,"x_max":247,"o":"m 160 179 q 180 179 160 179 q 224 150 200 179 q 247 71 247 121 q 227 -26 247 21 q 178 -101 207 -72 q 118 -153 150 -131 q 36 -192 60 -192 q 22 -176 31 -192 q 14 -149 14 -160 q 119 -8 113 -103 l 60 78 q 90 152 60 125 q 160 179 119 179 z "},"“":{"ha":535,"x_min":54,"x_max":549,"o":"m 142 560 q 122 560 142 560 q 78 589 101 560 q 54 668 54 618 q 74 765 54 718 q 123 840 94 811 q 183 892 151 869 q 265 931 242 931 q 279 915 271 931 q 288 888 288 899 q 182 747 189 842 l 242 661 q 212 587 242 614 q 142 560 182 560 m 403 560 q 383 560 403 560 q 339 589 363 560 q 315 668 315 618 q 335 765 315 718 q 384 840 356 811 q 444 892 413 869 q 526 931 503 931 q 540 915 532 931 q 549 888 549 899 q 443 747 450 842 l 503 661 q 473 587 503 614 q 403 560 443 560 z "},"”":{"ha":563,"x_min":14,"x_max":508,"o":"m 160 931 q 180 931 160 931 q 224 901 200 931 q 247 822 247 872 q 227 726 247 772 q 178 650 207 679 q 118 600 150 621 q 36 560 60 560 q 22 576 31 560 q 14 603 14 592 q 119 743 113 649 l 60 829 q 90 903 60 876 q 160 931 119 931 m 421 931 q 441 931 421 931 q 485 901 461 931 q 508 822 508 872 q 488 726 508 772 q 440 650 468 679 q 379 600 411 621 q 297 560 321 560 q 283 576 292 560 q 275 603 275 592 q 381 743 374 649 l 321 829 q 351 903 321 876 q 421 931 381 931 z "},"„":{"ha":563,"x_min":14,"x_max":508,"o":"m 160 179 q 180 179 160 179 q 224 150 200 179 q 247 71 247 121 q 227 -26 247 21 q 178 -101 207 -72 q 118 -153 150 -131 q 36 -192 60 -192 q 22 -176 31 -192 q 14 -149 14 -160 q 119 -8 113 -103 l 60 78 q 90 152 60 125 q 160 179 119 179 m 421 179 q 441 179 421 179 q 485 150 461 179 q 508 71 508 121 q 488 -26 508 21 q 440 -101 468 -72 q 379 -153 411 -131 q 297 -192 321 -192 q 283 -176 292 -192 q 275 -149 275 -160 q 381 -8 374 -103 l 321 78 q 351 152 321 125 q 421 179 381 179 z "},"†":{"ha":439,"x_min":-25,"x_max":478,"o":"m 478 739 l 436 643 q 244 628 356 628 q 13 650 132 628 q -12 678 0 654 q -25 717 -24 703 l -18 725 q 209 714 76 714 q 465 763 342 714 l 478 739 m 172 -131 q 169 -117 172 -131 q 158 50 167 -103 q 150 485 150 203 q 175 1021 150 767 l 211 1042 l 328 965 q 265 481 289 806 q 240 -131 240 156 q 190 -158 222 -158 q 172 -131 176 -158 z "},"‡":{"ha":439,"x_min":-46,"x_max":478,"o":"m 457 200 l 415 104 q 223 89 335 89 q -8 111 111 89 q -33 140 -21 115 q -46 178 -44 164 l -39 186 q 188 175 56 175 q 444 224 321 175 l 457 200 m 478 739 l 436 643 q 244 628 356 628 q 13 650 132 628 q -12 678 0 654 q -25 717 -24 703 l -18 725 q 209 714 76 714 q 465 763 342 714 l 478 739 m 172 -131 q 169 -117 172 -131 q 158 50 167 -103 q 150 485 150 203 q 175 1021 150 767 l 211 1042 l 328 965 q 265 481 289 806 q 240 -131 240 156 q 190 -158 222 -158 q 172 -131 176 -158 z "},"•":{"ha":372,"x_min":54,"x_max":324,"o":"m 173 235 q 145 235 173 235 q 85 272 117 235 q 54 367 54 310 q 107 467 54 424 q 256 525 160 511 q 324 392 324 469 q 276 275 324 315 q 173 235 229 235 z "},"…":{"ha":883,"x_min":54,"x_max":835,"o":"m 139 -39 q 119 -39 139 -39 q 76 -12 99 -39 q 54 55 54 14 q 92 127 54 96 q 197 168 129 158 q 246 74 246 131 q 213 -10 246 18 q 139 -39 179 -39 m 433 -39 q 413 -39 433 -39 q 371 -12 393 -39 q 349 55 349 14 q 386 127 349 96 q 492 168 424 158 q 540 74 540 131 q 507 -10 540 18 q 433 -39 474 -39 m 728 -39 q 708 -39 728 -39 q 665 -12 688 -39 q 643 55 643 14 q 681 127 643 96 q 786 168 718 158 q 835 74 835 131 q 801 -10 835 18 q 728 -39 768 -39 z "},"‰":{"ha":1539,"x_min":69,"x_max":1497,"o":"m 285 926 q 399 856 354 926 q 443 649 443 785 q 380 422 443 513 q 226 332 317 332 q 114 403 158 332 q 69 610 69 474 q 133 836 69 746 q 285 926 196 926 m 267 824 q 242 824 267 824 q 177 764 217 824 q 138 615 138 704 q 167 478 138 525 q 247 432 196 432 q 337 490 297 432 q 376 637 376 547 q 347 775 376 726 q 267 824 318 824 m 896 567 q 1010 496 965 567 q 1054 289 1054 425 q 991 63 1054 153 q 838 -28 928 -28 q 725 43 769 -28 q 681 250 681 114 q 744 476 681 386 q 896 567 807 567 m 878 464 q 853 464 878 464 q 788 404 828 464 q 749 255 749 344 q 778 119 749 165 q 858 72 807 72 q 948 130 908 72 q 988 277 988 188 q 958 415 988 367 q 878 464 929 464 m 1339 567 q 1453 496 1408 567 q 1497 289 1497 425 q 1434 63 1497 153 q 1281 -28 1371 -28 q 1168 43 1213 -28 q 1124 250 1124 114 q 1187 476 1124 386 q 1339 567 1250 567 m 1322 464 q 1296 464 1322 464 q 1231 404 1271 464 q 1192 255 1192 344 q 1221 119 1192 165 q 1301 72 1250 72 q 1391 130 1351 72 q 1431 277 1431 188 q 1401 415 1431 367 q 1322 464 1372 464 m 339 -136 q 322 -143 336 -143 q 272 -112 292 -143 q 751 994 551 557 l 867 1025 l 911 989 q 682 585 774 769 q 551 321 590 401 q 440 83 513 240 q 339 -136 368 -75 z "},"‹":{"ha":457,"x_min":56,"x_max":374,"o":"m 56 325 l 63 410 q 196 517 138 458 q 335 674 254 575 l 360 657 l 374 536 q 165 376 299 460 l 164 358 q 281 267 247 299 q 344 199 315 235 l 308 78 l 281 61 q 56 325 182 236 z "},"›":{"ha":457,"x_min":83,"x_max":401,"o":"m 401 410 l 394 325 q 261 218 319 276 q 122 61 203 160 l 97 78 l 83 199 q 292 358 158 275 l 293 376 q 176 468 210 436 q 113 536 142 500 l 149 657 l 176 674 q 401 410 275 499 z "},"⁄":{"ha":1124,"x_min":242,"x_max":881,"o":"m 308 -136 q 292 -143 306 -143 q 242 -112 261 -143 q 721 994 521 557 l 836 1025 l 881 989 q 651 585 743 769 q 521 321 560 401 q 410 83 482 240 q 308 -136 338 -75 z "},"⁴":{"ha":417,"x_min":-10,"x_max":378,"o":"m 233 1167 q 367 1126 304 1167 q 311 813 318 1014 l 360 831 l 378 797 l 343 721 q 308 714 332 717 l 308 694 q 310 612 308 636 q 309 586 313 588 q 285 585 306 585 q 253 601 264 585 q 238 708 239 693 q 188 707 218 707 q 11 732 85 707 q -10 782 -10 747 l 61 894 q 233 1167 176 1079 m 235 1042 q 100 783 128 839 q 231 793 168 783 q 228 910 228 832 q 235 1042 228 988 z "},"€":{"ha":694,"x_min":11,"x_max":689,"o":"m 33 533 l 103 531 l 144 531 q 338 785 206 678 q 667 922 469 892 l 689 886 l 642 767 q 542 785 588 785 q 369 717 442 785 q 257 539 296 649 q 513 607 410 556 l 526 583 l 493 485 q 232 453 372 456 q 219 349 222 401 l 228 349 q 501 397 378 349 l 514 374 l 472 278 q 320 263 392 263 q 224 264 249 263 q 278 113 235 171 q 386 56 321 56 q 519 90 451 56 q 625 200 586 125 q 643 211 629 211 q 678 192 657 211 q 369 -46 572 -46 q 177 46 249 -46 q 99 276 106 138 q 83 279 93 278 q 49 285 64 282 q 24 313 36 286 q 11 350 11 340 q 18 360 11 360 l 100 351 q 119 456 107 413 q 71 460 86 458 q 41 487 56 463 q 26 524 26 511 l 33 533 z "},"™":{"ha":1156,"x_min":39,"x_max":1072,"o":"m 1044 261 q 1019 249 1044 249 q 975 268 994 249 q 931 681 931 497 q 821 310 856 494 l 833 269 l 800 246 l 703 289 q 622 682 679 499 q 568 276 603 417 q 507 254 547 254 q 489 267 489 254 q 497 314 489 268 q 515 521 515 424 q 497 808 515 686 l 490 850 l 596 893 l 628 874 q 771 489 697 719 q 949 874 824 624 l 982 893 l 1072 849 q 1031 560 1031 742 q 1044 261 1031 378 m 254 269 q 210 250 235 250 q 185 263 185 250 q 203 510 203 381 q 193 750 203 639 q 57 760 111 750 l 39 790 l 81 883 q 244 849 144 849 q 442 871 343 849 q 453 848 453 871 q 439 814 453 825 q 307 767 375 783 q 254 269 293 419 z "},"Ω":{"ha":1051,"x_min":57,"x_max":961,"o":"m 261 86 q 124 389 124 207 q 253 710 124 571 q 569 850 382 850 q 859 742 757 850 q 961 492 961 635 q 905 249 961 350 q 765 86 849 147 q 956 40 867 76 q 961 -19 961 18 l 960 -42 q 763 -7 864 -7 q 601 -21 663 -7 l 578 21 q 817 468 817 171 q 744 689 817 613 q 568 765 672 765 q 344 647 432 765 q 257 371 257 528 q 303 172 257 265 q 443 21 350 79 l 414 -21 q 258 -7 357 -7 q 57 -42 158 -7 q 58 -8 56 -39 q 68 40 60 22 q 261 86 163 76 z "},"∂":{"ha":663,"x_min":58,"x_max":603,"o":"m 603 338 q 603 255 603 338 q 525 63 603 171 q 303 -46 447 -46 q 128 28 199 -46 q 58 232 58 101 q 476 606 58 528 q 390 787 447 724 q 233 850 332 850 q 129 835 190 850 l 103 953 l 136 978 q 338 925 250 974 q 474 809 425 876 q 553 653 522 742 q 603 338 603 506 m 318 81 q 466 153 414 81 q 518 334 518 225 q 456 519 518 443 q 260 429 336 499 q 185 270 185 360 q 220 131 185 181 q 318 81 256 81 z "},"∆":{"ha":740,"x_min":35,"x_max":685,"o":"m 383 940 q 444 914 422 940 q 596 495 525 750 q 685 18 667 240 l 565 -37 l 564 -39 q 324 -8 450 -8 q 40 -39 199 -8 q 35 -32 35 -39 q 51 17 35 -25 q 96 135 68 58 q 156 311 124 211 q 274 874 229 544 l 383 940 m 532 50 l 533 124 q 397 844 533 443 q 309 483 372 692 q 172 114 246 275 q 490 64 418 86 q 532 50 513 57 z "},"∏":{"ha":990,"x_min":17,"x_max":990,"o":"m 793 826 q 800 476 800 706 q 764 -192 800 247 q 733 -289 754 -289 q 685 -261 700 -289 q 689 7 689 -140 q 679 403 689 154 q 639 819 669 653 q 501 818 601 818 q 335 821 400 818 q 342 575 342 701 q 335 274 342 449 q 306 -192 329 100 q 275 -289 296 -289 q 226 -261 242 -289 q 231 11 231 -139 q 221 413 231 161 q 179 828 211 664 l 114 832 q 27 844 38 838 q 17 858 17 851 q 40 908 19 893 q 537 933 272 908 q 932 996 801 957 l 990 879 l 972 843 q 793 826 882 832 z "},"∑":{"ha":933,"x_min":60,"x_max":878,"o":"m 810 -261 q 489 -286 656 -286 q 190 -274 322 -286 q 60 -246 58 -261 q 79 -196 60 -214 q 186 -17 107 -151 q 436 365 326 219 q 168 815 249 575 q 114 835 111 824 q 133 885 114 867 q 523 909 315 885 q 833 972 731 933 l 878 856 l 864 819 q 561 794 710 794 q 331 800 413 794 q 561 308 407 518 q 153 -194 276 -19 q 507 -167 328 -190 q 779 -108 686 -143 l 824 -225 l 810 -261 z "},"−":{"ha":694,"x_min":64,"x_max":636,"o":"m 611 533 l 636 457 l 624 404 q 464 415 532 415 q 75 368 294 415 q 64 403 64 368 q 67 449 64 439 q 551 535 365 535 q 611 533 592 535 z "},"√":{"ha":929,"x_min":42,"x_max":972,"o":"m 303 -285 q 243 -258 265 -285 q 110 89 171 -122 q 42 483 50 300 l 165 531 l 201 513 q 188 332 188 436 q 292 -197 188 94 q 469 418 339 21 q 693 981 599 815 q 819 965 751 965 q 954 996 886 965 l 972 972 l 921 867 q 863 860 886 860 q 728 890 799 860 q 569 412 663 724 q 417 -218 476 100 l 303 -285 z "},"∞":{"ha":986,"x_min":74,"x_max":911,"o":"m 479 311 q 383 197 439 235 q 269 158 328 158 q 128 217 183 158 q 74 376 74 276 q 150 587 74 506 q 322 668 226 668 q 433 630 383 668 q 504 515 482 592 q 715 668 586 668 q 856 608 800 668 q 911 450 911 549 q 834 240 911 322 q 661 158 757 158 q 551 197 600 158 q 479 311 501 235 m 461 411 q 308 536 417 536 q 214 492 254 536 q 174 399 174 449 q 202 319 174 350 q 283 289 231 289 q 461 411 401 289 m 522 415 q 582 324 543 357 q 676 290 621 290 q 769 333 731 290 q 808 426 808 376 q 781 507 808 476 q 701 538 754 538 q 601 508 649 538 q 522 415 553 478 z "},"∫":{"ha":413,"x_min":-82,"x_max":493,"o":"m 493 969 l 461 835 q 414 839 436 839 q 271 449 271 839 l 271 390 q 169 -99 271 104 q -49 -306 67 -301 l -82 -281 l -50 -146 q -3 -150 -25 -150 q 140 239 140 -150 l 140 299 q 242 788 140 585 q 460 994 344 990 l 493 969 z "},"≈":{"ha":694,"x_min":71,"x_max":624,"o":"m 597 415 l 624 358 q 617 294 622 335 q 519 263 569 263 q 378 293 468 263 q 240 324 289 324 q 92 250 157 324 q 88 247 89 247 q 79 283 79 247 q 81 326 79 318 q 261 422 154 422 q 375 403 300 422 q 497 385 450 385 q 597 415 543 385 m 589 639 l 615 582 q 608 518 614 558 q 510 486 561 486 q 370 517 460 486 q 232 547 281 547 q 83 474 149 547 q 79 471 81 471 q 71 506 71 471 q 72 550 71 542 q 253 646 146 646 q 367 627 292 646 q 488 608 442 608 q 589 639 535 608 z "},"≠":{"ha":694,"x_min":64,"x_max":643,"o":"m 624 393 l 643 315 l 626 264 q 362 289 501 289 q 75 269 222 289 q 68 303 68 269 q 74 349 68 336 q 472 403 324 403 q 624 393 547 403 m 611 644 l 636 569 l 624 517 q 464 526 524 526 q 74 481 289 526 q 64 515 64 481 q 67 561 64 550 q 551 647 372 647 q 611 644 592 647 m 144 -15 q 125 -21 144 -21 q 92 3 106 -21 q 475 889 328 567 l 567 913 l 603 885 q 361 444 485 697 q 144 -15 300 319 z "},"≤":{"ha":694,"x_min":61,"x_max":636,"o":"m 61 538 l 74 622 q 572 865 386 736 l 614 850 l 632 756 q 221 589 471 664 l 218 571 q 578 404 456 489 l 531 315 l 488 300 q 317 422 419 368 q 61 538 215 476 m 611 207 l 636 131 l 624 78 q 464 89 532 89 q 75 42 294 89 q 64 77 64 42 q 67 122 64 113 q 551 208 365 208 q 611 207 592 208 z "},"≥":{"ha":694,"x_min":63,"x_max":636,"o":"m 633 628 l 621 543 q 122 300 308 429 l 81 315 l 63 410 q 474 576 224 501 l 476 594 q 117 761 239 676 l 164 850 l 207 865 q 377 743 275 797 q 633 628 479 689 m 611 207 l 636 131 l 624 78 q 464 89 532 89 q 75 42 294 89 q 64 77 64 42 q 67 122 64 113 q 551 208 365 208 q 611 207 592 208 z "},"◊":{"ha":765,"x_min":49,"x_max":717,"o":"m 717 315 q 617 139 649 199 q 546 -26 585 79 q 492 -235 507 -131 l 382 -301 q 321 -275 343 -301 q 206 -78 242 -143 q 122 99 169 -14 q 49 324 75 211 q 149 500 117 440 q 219 665 181 560 q 274 874 258 769 l 383 940 q 444 914 422 940 q 560 717 524 782 q 643 540 596 653 q 717 315 690 428 m 581 264 q 526 552 576 399 q 397 832 476 706 q 185 375 311 561 q 239 87 189 240 q 368 -193 289 -67 q 581 264 454 78 z "},"ﬁ":{"ha":693,"x_min":15,"x_max":636,"o":"m 636 826 l 603 801 q 385 900 478 900 q 249 690 249 900 q 248 643 249 675 q 247 594 247 611 q 503 674 425 617 l 615 619 q 618 528 618 558 q 533 1 618 294 q 493 -18 514 -18 q 472 -12 472 -18 q 506 324 506 186 q 492 549 506 463 q 377 516 453 528 q 244 503 301 504 q 181 -129 232 208 q 122 -153 157 -153 q 111 -146 111 -153 q 146 428 146 125 q 144 507 146 482 q 43 525 101 510 q 25 553 33 529 q 15 592 17 576 l 19 600 q 142 589 75 589 q 126 754 140 611 q 435 969 203 969 q 604 946 517 969 l 636 826 z "},"ﬂ":{"ha":735,"x_min":15,"x_max":654,"o":"m 111 -146 q 146 428 146 125 q 144 507 146 482 q 43 525 101 510 q 25 553 33 529 q 15 592 17 576 l 19 600 q 142 589 75 589 q 126 754 140 611 q 435 969 203 969 q 640 936 517 969 q 654 683 654 838 q 626 328 654 529 q 558 -19 599 126 q 529 -36 550 -29 q 496 -43 508 -43 q 483 -36 483 -43 q 549 526 549 242 q 519 856 549 686 q 385 901 446 901 q 286 851 324 901 q 249 690 249 800 q 248 642 249 675 q 247 593 247 610 q 415 638 329 603 l 428 614 l 386 518 q 244 503 314 503 q 181 -129 232 208 q 122 -153 157 -153 q 111 -146 111 -153 z "}}}
